<?xml version="1.0" encoding="utf-8"?>
<!-- Generator: Adobe Illustrator 21.1.0, SVG Export Plug-In . SVG Version: 6.00 Build 0)  -->
<svg version="1.1" id="Layer_1" xmlns="http://www.w3.org/2000/svg" xmlns:xlink="http://www.w3.org/1999/xlink" x="0px" y="0px" width="120" height="80"
	 viewBox="0 0 120 80" style="enable-background:new 0 0 120 80;" xml:space="preserve">
<style type="text/css">
	.st0{opacity:0.6;enable-background:new    ;}
</style>
<g>
	<g>
		<path d="M20.3,5.9c0-1.6-1.1-3.1-3-4.2C15.4,0.6,12.8,0,10.1,0c-2.9,0-5.3,0.4-7,1.1C2.2,1.5,1.5,2,1,2.5C0.6,3.1,0.3,3.6,0.3,4.3
			c0,0.1,0,2.1,0,2.1c0,0.9,0.3,1.4,1.1,1.7c0.7,0.3,1.6,0.3,2.7,0.4c1.5,0.1,3.4,0.2,5.4,0.9c2.3,0.8,4.2,1.4,5.9,1.5
			c0.3,0,0.7,0,1,0c1.3,0,2.3-0.3,3-0.8C20.3,9.5,20.3,7.8,20.3,5.9z M3.6,1.5c1.6-0.7,3.8-1,6.6-1c5.2,0,9.4,2.4,9.4,5.4
			c0,0.9-0.3,1.6-0.9,2.1C18,8.5,17,8.7,15.9,8.7h0c-1.5,0-3.4-0.4-5.5-1.3c-2-0.8-4.1-0.9-5.7-1C2.1,6.3,1,6.1,1,4.7
			C1,3.3,1.9,2.2,3.6,1.5z M18.8,9.8c-0.7,0.5-1.8,0.8-3.3,0.6C14,10.3,12.1,9.8,9.9,9C7.8,8.2,5.8,8.1,4.2,8C2.1,7.9,1,7.9,1,6.4
			V6.2c0.8,0.5,2.1,0.6,3.6,0.7c1.7,0.1,3.5,0.2,5.4,1c2.3,0.9,4.3,1.3,5.9,1.3h0c1.4,0,2.5-0.3,3.3-0.9c0.1-0.1,0.2-0.2,0.4-0.3
			C19.5,9.1,19.3,9.5,18.8,9.8z"/>
		<path d="M6.7,4.7C8,4.7,9,4.1,9,3.4c0-0.7-1-1.3-2.3-1.3c-1.3,0-2.3,0.6-2.3,1.3C4.3,4.1,5.4,4.7,6.7,4.7z M6.7,2.6
			c0.9,0,1.6,0.3,1.6,0.8c0,0.4-0.7,0.8-1.6,0.8c-0.9,0-1.6-0.4-1.6-0.8C5.1,3,5.8,2.6,6.7,2.6z"/>
	</g>
</g>
<g>
	<path d="M31.5,9.7c-0.1,0-0.2-0.1-0.3-0.2c0-0.1,0-0.3,0.2-0.3c2.5-0.8,4.2-3,5.3-4.3c0.4-0.5,0.7-0.8,0.9-1
		c0.4-0.3,0.9-0.4,1.3-0.6c0.3-0.1,0.5-0.2,0.8-0.3C39.9,2.9,40,2.6,40,2.5c0-0.2-0.2-0.6-0.6-0.6c-0.3-0.1-0.4,0.1-0.8,0.5
		c-0.3,0.3-0.6,0.7-1.1,1C37,3.6,36.1,3.6,35,3.6c-1.7-0.1-3.8-0.2-5.2,0.7c-0.1,0.1-0.3,0-0.4-0.1c-0.1-0.1,0-0.3,0.1-0.4
		c1.5-1,3.7-0.9,5.5-0.8c0.9,0,1.8,0.1,2.2-0.1c0.4-0.2,0.7-0.6,0.9-0.9c0.3-0.4,0.7-0.9,1.3-0.7c0.5,0.1,0.9,0.6,1,1.1
		c0,0.5-0.2,0.8-0.6,1c-0.3,0.1-0.6,0.2-0.8,0.3c-0.4,0.2-0.8,0.3-1.2,0.5c-0.1,0.1-0.4,0.4-0.7,0.8C36.1,6.5,34.2,8.9,31.5,9.7
		C31.6,9.7,31.5,9.7,31.5,9.7z"/>
	<path d="M34,3.5c-0.1,0-0.1,0-0.2,0c-0.1-0.1-0.2-0.3-0.1-0.4c0.3-0.4,0.7-0.7,0.9-0.8c0.4-0.2,0.8-0.3,1.2-0.4
		c0.3-0.1,0.6-0.1,1-0.3c0.3-0.1,0.3-0.4,0.3-0.5c0-0.2-0.2-0.6-0.6-0.6c-0.3-0.1-0.4,0.1-0.8,0.5c-0.3,0.3-0.6,0.7-1.1,1
		c-0.5,0.2-1.3,0.2-2.5,0.2c-0.6,0-1.2-0.1-1.9,0c0,0,0,0,0,0C30.2,2.1,30,2,30,1.8c0-0.1,0.1-0.3,0.3-0.3c0.7,0,1.3,0,1.9,0
		c0.9,0,1.8,0.1,2.2-0.1c0.4-0.2,0.7-0.6,0.9-0.9c0.3-0.4,0.7-0.9,1.3-0.7c0.5,0.1,0.9,0.6,1,1.1c0,0.5-0.2,0.8-0.6,1
		c-0.4,0.2-0.7,0.2-1.1,0.3c-0.4,0.1-0.7,0.1-1,0.3c-0.2,0.1-0.5,0.3-0.8,0.7C34.2,3.4,34.1,3.5,34,3.5z"/>
	<path d="M33.9,11.1h-9.5c-2.2,0-3.9-1.8-3.9-3.9V6.8c0-3.1,2.5-5.7,5.7-5.7h1.5c1.9,0,3.7,0.7,5.2,1.9c0.1,0.1,0.1,0.3,0,0.4
		c-0.1,0.1-0.3,0.1-0.4,0c-1.4-1.1-3.1-1.7-4.8-1.7h-1.5C23.3,1.7,21,4,21,6.8v0.4c0,1.9,1.5,3.4,3.4,3.4h9.5c0.7,0,1.3-0.6,1.3-1.3
		c0-0.7-0.1-1.4-0.3-2.1c0-0.1,0-0.3,0.2-0.3c0.1,0,0.3,0,0.3,0.2c0.2,0.7,0.3,1.5,0.3,2.3C35.8,10.3,34.9,11.1,33.9,11.1z"/>
</g>
<g>
	<path d="M56.5,0.7H46c-0.2,0-0.4-0.2-0.4-0.4c0-0.2-0.1-0.3-0.3-0.3S45,0.1,45,0.3c0,0.6,0.5,1,1,1h10.5c1.8,0,3.3,1.5,3.3,3.3
		c0,1.6-1.2,3-2.7,3.3c0.8-0.9,1.3-2.1,1.3-3.4V3.8c0-0.6-0.5-1-1-1h-9.3c-2.3,0-4.2,0.9-5.6,2.5c-1.3,1.5-2,3.7-2,6.1
		c0,4.8,3.9,8.6,8.6,8.6h4.1c0.1,0,0.2-0.1,0.3-0.2c0.1-0.1,0.1-0.2,0-0.3l-0.6-1.3l0.6-1.6c0-0.1,0-0.3-0.1-0.4
		c-0.1-0.1-0.2-0.1-0.4-0.1L49.1,18c-2.3,0-4.1-1.9-4.1-4.2c0-2.2,1.8-4.1,4-4.2l1.5,1.8c0.1,0.1,0.1,0.1,0.1,0.2v1.8
		c0,0.2,0.1,0.3,0.3,0.3s0.3-0.1,0.3-0.3v-1.8c0-0.2-0.1-0.5-0.2-0.6l-1.1-1.3h0.9l1.5,1.8c0.1,0.1,0.1,0.1,0.1,0.2v1.8
		c0,0.2,0.1,0.3,0.3,0.3c0.2,0,0.3-0.1,0.3-0.3v-1.8c0-0.2-0.1-0.5-0.2-0.6l-1.1-1.3h0.9l1.5,1.8c0.1,0.1,0.1,0.1,0.1,0.2v1.8
		c0,0.2,0.1,0.3,0.3,0.3s0.3-0.1,0.3-0.3v-1.8c0-0.2-0.1-0.5-0.2-0.6l-1.1-1.3c1.2,0,2.2-0.4,3.1-1c0,0,0,0,0,0h0.2c2.2,0,4-1.8,4-4
		S58.7,0.7,56.5,0.7z M57.8,3.8v0.7c0,2.5-2,4.5-4.5,4.5h-4.1c0,0,0,0,0,0c0,0,0,0,0,0c-0.2,0-0.5,0-0.7,0.1V3.4h9
		C57.6,3.4,57.8,3.6,57.8,3.8z M47.8,3.4v5.8c-0.5,0.2-1,0.4-1.4,0.7l-3.4-4.1c0,0,0,0,0.1-0.1C44.2,4.3,45.8,3.5,47.8,3.4z
		 M44.7,15.8l-1.6,0.9c-1.2-1.4-1.9-3.2-2-5.1l3.3,1.1c-0.1,0.4-0.2,0.8-0.2,1.2C44.3,14.5,44.5,15.2,44.7,15.8z M52.3,18.4l0.5,0.9
		h-3.3v-0.8l3.2-1.3l-0.4,1C52.2,18.3,52.2,18.4,52.3,18.4z M48.8,18.6v0.7c-2-0.1-3.9-0.9-5.2-2.2l1.4-0.8
		C45.8,17.6,47.2,18.5,48.8,18.6z M44.7,12l-3.5-1.2c0.1-1.7,0.6-3.2,1.4-4.5l3.3,4C45.3,10.8,44.9,11.3,44.7,12z"/>
	<path d="M53.6,6.2c0.6,0,1-0.5,1-1s-0.5-1-1-1c-0.6,0-1,0.5-1,1C52.6,5.7,53.1,6.2,53.6,6.2z M53.6,4.8C53.8,4.8,54,5,54,5.2
		c0,0.2-0.2,0.4-0.4,0.4c-0.2,0-0.4-0.2-0.4-0.4C53.2,5,53.4,4.8,53.6,4.8z"/>
</g>
<path id="XMLID_807_" d="M39.6,25.1l-1.2-2.2c-0.3-0.5-0.8-0.9-1.4-1c-0.3-1.2-1.5-2.1-2.8-2.1c-0.6,0-1.1,0.4-1.2,0.9
	c-0.5-0.6-1.3-0.9-2.1-0.9c-0.6,0-1.1,0.4-1.2,0.9c-0.5-0.6-1.3-0.9-2.1-0.9c-0.6,0-1.1,0.4-1.2,0.9c-0.5-0.6-1.3-0.9-2.1-0.9
	c-0.7,0-1.2,0.6-1.2,1.2v0.9c-1,0.1-1.9,0.8-2.5,1.7c-0.6,1.1-0.6,2.3,0,3.4l1.2,2.2c0.3,0.5,0.8,0.9,1.4,1c0.3,1.2,1.5,2.1,2.8,2.1
	c0.6,0,1.1-0.4,1.2-0.9c0.5,0.6,1.3,0.9,2.1,0.9c0.6,0,1.1-0.4,1.2-0.9c0.5,0.6,1.3,0.9,2.1,0.9c0.6,0,1.1-0.4,1.2-0.9
	c0.5,0.6,1.3,0.9,2.1,0.9c0.7,0,1.2-0.6,1.2-1.2v-0.9c1-0.1,1.9-0.8,2.5-1.7C40.1,27.4,40.2,26.1,39.6,25.1z M22.9,29.2
	c-0.2-0.1-0.4-0.3-0.5-0.5l-1.2-2.2c-0.4-0.8-0.4-1.8,0-2.6c0.4-0.7,1-1.1,1.7-1.2V29.2L22.9,29.2z M26.3,31c0,0.2-0.2,0.4-0.4,0.4
	c-1.1,0-2.1-0.9-2.1-2.1V21c0-0.2,0.2-0.4,0.4-0.4c1.1,0,2.1,0.9,2.1,2.1V31z M29.6,31c0,0.2-0.2,0.4-0.4,0.4
	c-1.1,0-2.1-0.9-2.1-2.1V21c0-0.2,0.2-0.4,0.4-0.4c1.1,0,2.1,0.9,2.1,2.1V31z M32.9,31c0,0.2-0.2,0.4-0.4,0.4
	c-1.1,0-2.1-0.9-2.1-2.1V21c0-0.2,0.2-0.4,0.4-0.4c1.1,0,2.1,0.9,2.1,2.1V31z M36.2,31c0,0.2-0.2,0.4-0.4,0.4
	c-1.1,0-2.1-0.9-2.1-2.1V21c0-0.2,0.2-0.4,0.4-0.4c1.1,0,2.1,0.9,2.1,2.1V31z M38.8,28c-0.4,0.7-1,1.1-1.7,1.3v-6.5
	c0.2,0.1,0.4,0.3,0.5,0.5l1.2,2.2C39.3,26.3,39.3,27.2,38.8,28z"/>
<path class="st0" d="M39.6,25.4c-0.3-0.4-0.6-0.8-0.8-1.2c-0.3-0.6-0.5-1.3-1-1.7c-0.2-0.2-0.4-0.4-0.6-0.6c0,0-0.1,0-0.1,0
	c-0.2,0-0.2-0.2-0.2-0.3c-0.2-0.2-0.4-0.3-0.6-0.6c-0.3-0.4-0.7-0.8-1.1-1.1c-0.5,0-1.1,0.1-1.6,0.2c0,0.1-0.1,0.1-0.1,0.2
	c-0.1,0.1-0.2,0.3-0.3,0.4c-0.1,0.1-0.3,0.1-0.3-0.1c0,0,0-0.1,0-0.1c0,0,0,0,0,0c-0.4-0.1-0.7-0.3-1.1-0.4c-0.1,0-0.1-0.1-0.1-0.2
	c-0.5,0.1-1,0.4-1.5,0.5c0,0.1-0.1,0.2-0.2,0.2c-0.8,0-1.6-0.3-2.4-0.4c0,0,0,0-0.1,0c-0.2,0-0.3,0.1-0.5,0.1c0,0.1-0.1,0.1-0.2,0.1
	c0,0-0.1,0.1-0.1,0.1c-0.1,0.1-0.2,0-0.2,0c-0.1,0-0.2,0-0.3,0c0,0-0.1,0-0.1,0c-0.1,0-0.1,0-0.2,0c-0.1,0-0.2-0.1-0.2-0.2
	c-0.2,0-0.4,0-0.7,0c-0.1,0-0.1,0-0.1-0.1c-0.2,0-0.5,0-0.7-0.1c-0.3,0.2-0.3,0.7-0.4,1c-0.1,0.1-0.2,0.3-0.2,0.4c0,0,0,0.1,0,0.1
	c0.1,0.1,0.2,0.2,0.3,0.3c0.1,0.2,0.1,0.4-0.2,0.4c-0.2,0-0.4-0.1-0.6-0.3c0,0,0,0-0.1-0.1c0,0,0,0,0,0c-0.4,0.3-0.9,0.5-1.4,0.8
	C21.1,23,21,23.1,21,23.2c-0.2,0.2-0.3,0.4-0.6,0.5c0,0,0,0.1-0.1,0.1c0,0.2,0,0.3,0,0.5c0,0.1-0.1,0.2-0.1,0.2c0,0.2,0,0.4,0,0.6
	c0,0.4,0.1,0.8,0.3,1.2c0.1,0,0.2,0,0.2,0.1c0.1,0.3,0.2,0.6,0.3,0.8c0.1,0.2,0.2,0.5,0.3,0.7c0.2,0.4,0.6,0.8,0.7,1.2
	c0,0,0,0,0,0.1c0.1,0.1,0.2,0.2,0.4,0.4c0,0,0,0,0,0c0.1-0.1,0.2-0.1,0.3,0c0.4,0.3,0.9,0.7,0.9,1.2c0,0,0,0.1,0,0.1c0,0,0,0,0,0
	c0,0,0,0,0,0c0.2,0.1,0.3,0.2,0.5,0.3c0.4,0.2,0.8,0.4,1.1,0.7c0.2,0,0.3,0,0.5-0.1c0.4-0.1,0.7-0.2,1-0.5c-0.2-0.2,0.1-0.5,0.3-0.3
	c0.1,0.1,0.2,0.2,0.3,0.4c0.2,0.1,0.5,0.2,0.7,0.4c0,0,0,0,0,0c0.2-0.1,0.5-0.1,0.6-0.1c0.3,0,0.6,0,0.9,0c0.1-0.3,0.3-0.5,0.6-0.6
	c0,0,0,0,0,0c0-0.1,0.2-0.2,0.3-0.1c0.2,0.1,0.5,0.2,0.6,0.4c0,0,0,0,0,0c0.4,0.1,0.8,0.2,1.2,0.3c0.2-0.1,0.5-0.1,0.7-0.1
	c0.2-0.1,0.3-0.2,0.5-0.2c0,0,0,0,0,0c0-0.1,0-0.2,0-0.2c0-0.3,0.4-0.3,0.4,0c0,0,0,0.1,0,0.1c0.4,0.1,0.8,0.2,1.2,0.4
	c0.3,0.1,0.7,0.2,1,0.2c0.2-0.1,0.3-0.2,0.5-0.3c0.1-0.1,0.3-0.2,0.4-0.3c0,0-0.1,0-0.1,0c-0.2,0-0.3-0.3-0.1-0.4c0,0,0,0,0,0
	c0,0,0.1-0.1,0.1-0.1c0,0,0,0,0,0c0,0,0.1,0,0.1-0.1l0,0c-0.1-0.1,0-0.2,0-0.3c0,0,0-0.1,0-0.1c0.1-0.4,0.5-0.6,0.9-0.7
	c0.1-0.2,0.3-0.5,0.5-0.6c0.2-0.3,0.5-0.6,0.8-0.7c0,0,0.1-0.1,0.1-0.1c0.1-0.2,0.1-0.5,0.2-0.7C39.5,26.8,39.5,26.1,39.6,25.4z"/>
<path id="XMLID_1_" d="M19.6,24.1l-1.2-2.2c-0.3-0.5-0.8-0.9-1.4-1c-0.3-1.2-1.5-2.1-2.8-2.1c-0.6,0-1.1,0.4-1.2,0.9
	c-0.5-0.6-1.3-0.9-2.1-0.9c-0.6,0-1.1,0.4-1.2,0.9c-0.5-0.6-1.3-0.9-2.1-0.9c-0.6,0-1.1,0.4-1.2,0.9c-0.5-0.6-1.3-0.9-2.1-0.9
	c-0.7,0-1.2,0.6-1.2,1.3v0.9c-1,0.1-1.9,0.8-2.5,1.7c-0.6,1.1-0.6,2.3,0,3.4l1.2,2.2c0.3,0.5,0.8,0.9,1.4,1c0.3,1.2,1.5,2.1,2.8,2.1
	c0.6,0,1.1-0.4,1.2-0.9c0.5,0.6,1.3,0.9,2.1,0.9c0.6,0,1.1-0.4,1.2-0.9c0.5,0.6,1.3,0.9,2.1,0.9c0.6,0,1.1-0.4,1.2-0.9
	c0.5,0.6,1.3,0.9,2.1,0.9c0.7,0,1.2-0.6,1.2-1.3v-0.9c1-0.1,1.9-0.8,2.5-1.7C20.1,26.4,20.2,25.1,19.6,24.1z M2.9,28.2
	c-0.2-0.1-0.4-0.3-0.5-0.5l-1.2-2.2c-0.4-0.8-0.4-1.8,0-2.6c0.4-0.7,1-1.1,1.7-1.3L2.9,28.2L2.9,28.2z M6.3,30
	c0,0.2-0.2,0.4-0.4,0.4c-1.1,0-2.1-0.9-2.1-2.1V20c0-0.2,0.2-0.4,0.4-0.4c1.1,0,2.1,0.9,2.1,2.1V30z M9.6,30c0,0.2-0.2,0.4-0.4,0.4
	c-1.1,0-2.1-0.9-2.1-2.1V20c0-0.2,0.2-0.4,0.4-0.4c1.1,0,2.1,0.9,2.1,2.1V30z M12.9,30c0,0.2-0.2,0.4-0.4,0.4
	c-1.1,0-2.1-0.9-2.1-2.1V20c0-0.2,0.2-0.4,0.4-0.4c1.1,0,2.1,0.9,2.1,2.1V30z M16.2,30c0,0.2-0.2,0.4-0.4,0.4
	c-1.1,0-2.1-0.9-2.1-2.1V20c0-0.2,0.2-0.4,0.4-0.4c1.1,0,2.1,0.9,2.1,2.1V30z M18.8,27c-0.4,0.7-1,1.1-1.7,1.3v-6.5
	c0.2,0.1,0.4,0.3,0.5,0.5l1.2,2.2C19.3,25.3,19.3,26.2,18.8,27z"/>
<g>
	<g>
		<path d="M0,39.9v0.7c0,2.1,0.6,4.1,1.8,5.8c1.1,1.5,2.6,2.7,4.3,3.4v2.4h7.8v-2.4c1.7-0.7,3.2-1.9,4.3-3.4
			c1.2-1.7,1.8-3.7,1.8-5.8v-0.7H0z M7.4,50.8V50h5.2v0.9H7.4z M17.1,45.6c-1,1.4-2.4,2.5-4,3.1H6.9c-1.6-0.6-3-1.7-4-3.1
			c-0.9-1.3-1.5-2.8-1.6-4.4h17.3C18.6,42.8,18,44.3,17.1,45.6z"/>
	</g>
</g>
<g>
	<path d="M56.5,20.7H46c-0.2,0-0.4-0.2-0.4-0.4c0-0.2-0.1-0.3-0.3-0.3S45,20.1,45,20.3c0,0.6,0.5,1,1,1h10.5c1.8,0,3.3,1.5,3.3,3.3
		c0,1.6-1.2,3-2.7,3.3c0.8-0.9,1.3-2.1,1.3-3.4v-0.7c0-0.6-0.5-1-1-1h-9.3c-2.3,0-4.2,0.9-5.6,2.5c-1.3,1.5-2,3.7-2,6.1
		c0,4.8,3.9,8.6,8.6,8.6h4.1c0.1,0,0.2-0.1,0.3-0.2c0.1-0.1,0.1-0.2,0-0.3l-0.6-1.3l0.6-1.6c0-0.1,0-0.3-0.1-0.4
		c-0.1-0.1-0.2-0.1-0.4-0.1L49.1,38c-2.3,0-4.1-1.9-4.1-4.2c0-2.2,1.8-4.1,4-4.2l1.5,1.8c0.1,0.1,0.1,0.1,0.1,0.2v1.8
		c0,0.2,0.1,0.3,0.3,0.3s0.3-0.1,0.3-0.3v-1.8c0-0.2-0.1-0.5-0.2-0.6l-1.1-1.3h0.9l1.5,1.8c0.1,0.1,0.1,0.1,0.1,0.2v1.8
		c0,0.2,0.1,0.3,0.3,0.3c0.2,0,0.3-0.1,0.3-0.3v-1.8c0-0.2-0.1-0.5-0.2-0.6l-1.1-1.3h0.9l1.5,1.8c0.1,0.1,0.1,0.1,0.1,0.2v1.8
		c0,0.2,0.1,0.3,0.3,0.3s0.3-0.1,0.3-0.3v-1.8c0-0.2-0.1-0.5-0.2-0.6l-1.1-1.3c1.2,0,2.2-0.4,3.1-1c0,0,0,0,0,0h0.2c2.2,0,4-1.8,4-4
		S58.7,20.7,56.5,20.7z M57.8,23.8v0.7c0,2.5-2,4.5-4.5,4.5h-4.1c0,0,0,0,0,0c0,0,0,0,0,0c-0.2,0-0.5,0-0.7,0.1v-5.6h9
		C57.6,23.4,57.8,23.6,57.8,23.8z M47.8,23.4v5.8c-0.5,0.2-1,0.4-1.4,0.7l-3.4-4.1c0,0,0,0,0.1-0.1C44.2,24.3,45.8,23.5,47.8,23.4z
		 M44.7,35.8l-1.6,0.9c-1.2-1.4-1.9-3.2-2-5.1l3.3,1.1c-0.1,0.4-0.2,0.8-0.2,1.2C44.3,34.5,44.5,35.2,44.7,35.8z M52.3,38.4l0.5,0.9
		h-3.3v-0.8l3.2-1.3l-0.4,1C52.2,38.3,52.2,38.4,52.3,38.4z M48.8,38.6v0.7c-2-0.1-3.9-0.9-5.2-2.2l1.4-0.8
		C45.8,37.6,47.2,38.5,48.8,38.6z M44.7,32l-3.5-1.2c0.1-1.7,0.6-3.2,1.4-4.5l3.3,4C45.3,30.8,44.9,31.3,44.7,32z"/>
	<path d="M53.6,26.2c0.6,0,1-0.5,1-1c0-0.6-0.5-1-1-1c-0.6,0-1,0.5-1,1C52.6,25.7,53.1,26.2,53.6,26.2z M53.6,24.8
		c0.2,0,0.4,0.2,0.4,0.4c0,0.2-0.2,0.4-0.4,0.4c-0.2,0-0.4-0.2-0.4-0.4C53.2,25,53.4,24.8,53.6,24.8z"/>
</g>
<g>
	<g>
		<rect x="26.1" y="50.4" width="7.8" height="1.7"/>
	</g>
</g>
<g>
	<g>
		<path d="M20,39.9v0.7c0,2.1,0.6,4.1,1.8,5.8c0.8,1.1,1.8,2.1,3,2.8h10.4c1.2-0.7,2.2-1.6,3-2.8c1.2-1.7,1.8-3.7,1.8-5.8v-0.7H20z"
			/>
	</g>
</g>
<g>
	<g>
		<path d="M40,39.9v0.7c0,2.1,0.6,4.1,1.8,5.8c1.1,1.5,2.6,2.7,4.3,3.4v2.4h7.8v-2.4c1.7-0.7,3.2-1.9,4.3-3.4
			c1.2-1.7,1.8-3.7,1.8-5.8v-0.7H40z M47.4,50.8V50h5.2v0.9H47.4z M57.1,45.6c-1,1.4-2.4,2.5-4,3.1h-6.2c-1.6-0.6-3-1.7-4-3.1
			c-0.9-1.3-1.5-2.8-1.6-4.4h17.3C58.6,42.8,58,44.3,57.1,45.6z"/>
	</g>
</g>
<path d="M40.8,43.3c0.6,0.7,1.1,1.4,1.7,2.1c0.5,0.6,1.1,1.2,1.6,1.8c0.2,0.2,0.4,0.4,0.6,0.6c0,0,0.1,0,0.1,0.1
	c0.1,0,0.2,0.1,0.3,0.1c0.1,0,0.2,0,0.2,0c0.5,0.1,1,0.3,1.4,0.7c0,0,0,0,0,0c0.3,0.1,0.6,0.2,0.9,0.3c1,0.2,2,0.4,3.1,0.4
	c0,0,0,0,0,0V41h-10L40.8,43.3C40.8,43.3,40.8,43.3,40.8,43.3z"/>
<rect x="47.2" y="49.7" width="3.6" height="1.6"/>
<g>
	<path d="M76,40.7H65.5c-0.2,0-0.4-0.2-0.4-0.4c0-0.2-0.1-0.3-0.3-0.3c-0.2,0-0.3,0.1-0.3,0.3c0,0.6,0.5,1,1,1H76
		c1.8,0,3.3,1.5,3.3,3.3c0,1.6-1.2,3-2.7,3.3c0.8-0.9,1.3-2.1,1.3-3.4v-0.7c0-0.6-0.5-1-1-1h-9.3c-2.3,0-4.2,0.9-5.6,2.5
		c-1.3,1.5-2,3.7-2,6.1c0,4.8,3.9,8.6,8.6,8.6h4.1c0.1,0,0.2-0.1,0.3-0.2c0.1-0.1,0.1-0.2,0-0.3l-0.6-1.3l0.6-1.6
		c0-0.1,0-0.3-0.1-0.4c-0.1-0.1-0.2-0.1-0.4-0.1L68.6,58c-2.3,0-4.1-1.9-4.1-4.2c0-2.2,1.8-4.1,4-4.2l1.5,1.8
		c0.1,0.1,0.1,0.1,0.1,0.2v1.8c0,0.2,0.1,0.3,0.3,0.3c0.2,0,0.3-0.1,0.3-0.3v-1.8c0-0.2-0.1-0.5-0.2-0.6l-1.1-1.3h0.9l1.5,1.8
		c0.1,0.1,0.1,0.1,0.1,0.2v1.8c0,0.2,0.1,0.3,0.3,0.3c0.2,0,0.3-0.1,0.3-0.3v-1.8c0-0.2-0.1-0.5-0.2-0.6L71,49.6h0.9l1.5,1.8
		c0.1,0.1,0.1,0.1,0.1,0.2v1.8c0,0.2,0.1,0.3,0.3,0.3c0.2,0,0.3-0.1,0.3-0.3v-1.8c0-0.2-0.1-0.5-0.2-0.6l-1.1-1.3
		c1.2,0,2.2-0.4,3.1-1c0,0,0,0,0,0H76c2.2,0,4-1.8,4-4C80,42.5,78.2,40.7,76,40.7z M77.3,43.8v0.7c0,2.5-2,4.5-4.5,4.5h-4.1
		c0,0,0,0,0,0c0,0,0,0,0,0c-0.2,0-0.5,0-0.7,0.1v-5.6h9C77.1,43.4,77.3,43.6,77.3,43.8z M67.3,43.4v5.8c-0.5,0.2-1,0.4-1.4,0.7
		l-3.4-4.1c0,0,0,0,0.1-0.1C63.7,44.3,65.3,43.5,67.3,43.4z M64.2,55.8l-1.6,0.9c-1.2-1.4-1.9-3.2-2-5.1l3.3,1.1
		c-0.1,0.4-0.2,0.8-0.2,1.2C63.8,54.5,64,55.2,64.2,55.8z M71.8,58.4l0.5,0.9h-3.3v-0.8l3.2-1.3l-0.4,1
		C71.7,58.3,71.7,58.4,71.8,58.4z M68.3,58.6v0.7c-2-0.1-3.9-0.9-5.2-2.2l1.4-0.8C65.3,57.6,66.7,58.5,68.3,58.6z M64.2,52l-3.5-1.2
		c0.1-1.7,0.6-3.2,1.4-4.5l3.3,4C64.8,50.8,64.4,51.3,64.2,52z"/>
	<path d="M73.1,46.2c0.6,0,1-0.5,1-1s-0.5-1-1-1c-0.6,0-1,0.5-1,1S72.6,46.2,73.1,46.2z M73.1,44.8c0.2,0,0.4,0.2,0.4,0.4
		s-0.2,0.4-0.4,0.4s-0.4-0.2-0.4-0.4S72.9,44.8,73.1,44.8z"/>
</g>
<g>
	<g>
		<path d="M15.3,65c-0.6-0.6-1.5-1-2.4-1c-1,0-1.9,0.4-2.5,1.2c-0.3-0.4-0.7-0.7-1.2-0.9c0-0.9-0.1-2.4-0.7-3.3
			c-0.6-0.8-1.4-1.1-2.2-0.9c-0.9,0.2-1.5,1-1.7,2c-0.1,0.7,0.4,1.3,1.1,1.4c0.3,0,0.6,0,0.9-0.2c0,0,0.1-0.1,0.1-0.1
			c0,0.3,0.1,0.7,0.1,1.1c-0.5,0.2-1,0.5-1.3,1C4.9,64.4,4.1,64,3.1,64c-0.9,0-1.8,0.4-2.4,1c-0.6,0.6-0.8,1.4-0.8,2.2
			c0.2,3.4,1.3,8.3,2,10.5C2.2,78.5,3,80,4.3,80c0.7,0,1.4-0.3,1.8-0.8C6.6,79.7,7.3,80,8,80c0.7,0,1.4-0.3,1.8-0.8
			c0.5,0.5,1.1,0.8,1.8,0.8c1.4,0,2.2-1.5,2.4-2.3c0.7-2.2,1.7-7.1,2-10.5C16.1,66.3,15.8,65.6,15.3,65z M6.5,61.8
			c-0.1,0.1-0.2,0.2-0.2,0.5c0,0.1-0.1,0.2-0.2,0.3c-0.1,0.1-0.2,0.1-0.3,0.1c-0.2,0-0.4-0.2-0.4-0.5C5.5,61.5,6,61,6.5,60.8
			c0.5-0.1,1,0.1,1.4,0.6c0.3,0.5,0.5,1.4,0.6,2.6c-0.2,0-0.3,0-0.5,0c-0.1,0-0.2,0-0.3,0c0-0.6-0.1-1.6-0.4-2
			c0-0.1-0.1-0.1-0.1-0.2C6.9,61.6,6.7,61.6,6.5,61.8z M15.3,67.1c-0.2,3.4-1.3,8.2-1.9,10.3c-0.2,0.5-0.7,1.8-1.7,1.8
			c-0.6,0-1.2-0.4-1.5-0.9c-0.1-0.1-0.2-0.2-0.4-0.2s-0.3,0.1-0.4,0.2c-0.3,0.6-0.9,0.9-1.5,0.9c-0.6,0-1.2-0.3-1.5-0.9
			c-0.1-0.1-0.2-0.2-0.4-0.2c-0.1,0-0.3,0.1-0.4,0.2c-0.3,0.6-0.9,0.9-1.5,0.9c-0.9,0-1.5-1.3-1.7-1.8C2,75.2,1,70.4,0.7,67.1
			c0-0.6,0.2-1.1,0.6-1.6c0.5-0.5,1.1-0.8,1.8-0.8c0.9,0,1.7,0.5,2.1,1.3c0.1,0.1,0.2,0.2,0.4,0.2s0.3-0.1,0.4-0.2
			c0.4-0.8,1.2-1.3,2.1-1.3c0.9,0,1.7,0.5,2.1,1.3c0.1,0.1,0.2,0.2,0.4,0.2s0.3-0.1,0.4-0.2c0.4-0.8,1.2-1.3,2.1-1.3
			c0.7,0,1.3,0.3,1.8,0.8C15.1,66,15.3,66.5,15.3,67.1z"/>
	</g>
</g>
<g>
	<g>
		<path d="M6.5,77.1l-0.3-6.2c0-0.2-0.2-0.4-0.4-0.4c-0.2,0-0.4,0.2-0.4,0.4l0.3,6.2c0,0.2,0.2,0.4,0.4,0.4c0,0,0,0,0,0
			C6.3,77.5,6.5,77.3,6.5,77.1z"/>
	</g>
</g>
<g>
	<g>
		<path d="M6.1,69.1L6,68c0-0.2-0.2-0.4-0.4-0.4c-0.2,0-0.4,0.2-0.4,0.4l0.1,1.1c0,0.2,0.2,0.4,0.4,0.4c0,0,0,0,0,0
			C5.9,69.5,6.1,69.4,6.1,69.1z"/>
	</g>
</g>
<g>
	<g>
		<path d="M10,75.6c-0.2,0-0.4,0.2-0.4,0.4l-0.1,1.1c0,0.2,0.2,0.4,0.4,0.4c0,0,0,0,0,0c0.2,0,0.4-0.2,0.4-0.4l0.1-1.1
			C10.4,75.8,10.2,75.6,10,75.6z"/>
	</g>
</g>
<g>
	<g>
		<path d="M10.4,66.9c-0.2,0-0.4,0.2-0.4,0.4l-0.3,6.9c0,0.2,0.2,0.4,0.4,0.4c0,0,0,0,0,0c0.2,0,0.4-0.2,0.4-0.4l0.3-6.9
			C10.8,67.1,10.6,66.9,10.4,66.9z"/>
	</g>
</g>
<g>
	<g>
		<path d="M39.2,76.8c-0.2-0.2-0.5-0.4-0.9-0.7c-1.3-0.9-3.8-2.6-6-5.1c-0.8-0.9-1.4-2.2-1.9-3.4c-0.8-1.7-1.5-3.3-2.8-3.8
			c-0.7-0.3-1.5-0.2-2.2-0.2c-0.2,0-0.3,0-0.5,0c0,0-0.1-0.1-0.3-0.3c-0.2-0.3-0.4-0.8-0.6-1.3c-0.2-0.4-0.3-0.8-0.5-1.2
			c-0.2-0.4-0.7-0.7-1.2-0.7c-0.8,0-1.6,0.5-2,1.1c-0.3,0.4-0.3,0.9,0,1.3c0.1,0.2,0.3,0.4,0.5,0.7c0.3,0.4,0.6,0.9,0.8,1.3
			c0.3,0.5,0.3,0.7,0.3,0.8c0,0.1-0.1,0.2-0.1,0.3c-0.4,0.9-0.9,2.1-0.5,3.1c0.6,1.4,1.4,2.8,2.4,4.1c1.1,1.5,2.4,2.8,3.8,3.9
			c1.6,1.2,3.3,2.1,5.1,2.6c1.1,0.3,2.2,0.4,3.3,0.4c1,0,1.9-0.1,2.9-0.3c0.9-0.2,1.2-0.7,1.2-1C40.2,77.7,39.6,77.1,39.2,76.8z
			 M21.7,62.6c-0.2-0.2-0.3-0.4-0.4-0.6c0-0.1,0.2-0.2,0.4-0.4c0.3-0.2,0.5-0.1,0.5-0.1c0.2,0.3,0.3,0.7,0.5,1.1
			c0.5,1.2,1.1,2.4,2.2,2.4h0c0.2,0,0.3,0,0.5,0c0.3,0,0.7,0,1.1,0c-0.3,0.6-0.8,1.2-1.5,1.6c-0.8,0.4-1.7,0.6-2.5,0.5
			c0.1-0.3,0.2-0.6,0.4-0.9c0.1-0.1,0.1-0.2,0.2-0.3C23.3,65.1,22.7,64,21.7,62.6z M38.4,78.2c-1.9,0.4-3.8,0.4-5.6-0.1
			c-1.6-0.4-3.2-1.2-4.7-2.3c-2.4-1.8-4.6-4.6-5.8-7.4c0.2,0,0.3,0,0.5,0c0.9,0,1.9-0.3,2.8-0.7c0.9-0.5,1.6-1.3,2.1-2.2
			c0.6,0.6,1,1.6,1.5,2.7c0.6,1.2,1.2,2.6,2.2,3.7c2.3,2.6,4.8,4.3,6.2,5.3c0.4,0.3,0.7,0.5,0.8,0.6c0.2,0.2,0.3,0.3,0.3,0.3
			C38.6,78.2,38.6,78.2,38.4,78.2z"/>
	</g>
</g>
<g>
	<g>
		<path d="M26.4,71.3c-0.3-0.4-0.3-0.7-0.3-0.8l-1.3-0.2c-0.1,1.1,0.9,2.6,1.9,2.8l0.3-1.3C26.9,71.9,26.6,71.7,26.4,71.3z"/>
	</g>
</g>
<g>
	<path d="M58.5,64.8c-0.6-0.9-1.6-2.2-3.2-3.2c-1.6-1-3.5-1.5-5.6-1.5c0,0-0.1,0-0.2,0c-2.1,0-4,0.5-5.6,1.5c-1.7,1-2.7,2.3-3.2,3.2
		c-0.9,1.4-1.3,2.9-0.9,3.6c0.1,0.3,0.5,0.5,2.1,0.8c0.9,0.1,2.2,0.3,3.7,0.3c-0.5,1.4-0.8,2.6-1,3.7c-0.2,1.8,0,3.2,0.7,4.2
		c0.8,1.2,2.2,1.8,4.2,1.8c0,0,0.2,0,0.3,0c2,0,3.4-0.6,4.2-1.8c0.7-1,0.9-2.4,0.7-4.2c-0.1-1.1-0.5-2.4-1-3.7
		c1.5-0.1,2.7-0.2,3.7-0.3c1.6-0.2,2-0.5,2.1-0.8C59.8,67.7,59.4,66.2,58.5,64.8z M58.9,68c-0.2,0.2-1.6,0.6-5.7,0.8
		c-0.1,0-0.2,0.1-0.3,0.1c-0.1,0.1-0.1,0.2,0,0.3c0.8,2,1.9,5.7,0.5,7.8c-0.7,1-1.9,1.5-3.7,1.5c0,0-0.2,0-0.3,0
		c-1.8,0-3-0.5-3.7-1.5c-1.4-2-0.4-5.5,0.4-7.6c1,0,2,0.1,3,0.1c0.3,0,0.6,0,0.9,0c0.2,0,0.3-0.1,0.3-0.3c0-0.2-0.1-0.3-0.3-0.3
		c0,0,0,0,0,0c-4,0.2-9.4-0.5-9.8-0.8c-0.2-0.4,0.1-1.6,0.9-3c0.8-1.3,3.3-4.4,8.3-4.4c0,0,0.1,0,0.2,0c5,0,7.5,3.1,8.3,4.4
		C58.8,66.5,59.1,67.7,58.9,68z"/>
</g>
<g>
	<path d="M68.9,73.2c-0.1-0.3-0.2-0.7-0.2-1c0-0.2-0.2-0.4-0.4-0.4c-0.2,0-0.4,0.2-0.4,0.4c0,0.4,0.1,0.9,0.2,1.3
		c0.1,0.1,0.2,0.2,0.3,0.2c0,0,0.1,0,0.1,0C68.9,73.6,69,73.4,68.9,73.2z"/>
	<path d="M71.8,75.3C71.8,75.3,71.8,75.3,71.8,75.3c-0.9,0-1.8-0.4-2.4-1.1c-0.1-0.2-0.4-0.2-0.5,0c-0.2,0.1-0.2,0.4,0,0.5
		c0.7,0.8,1.8,1.3,2.9,1.3c0,0,0,0,0,0c0.2,0,0.4-0.2,0.4-0.4S72,75.3,71.8,75.3z"/>
	<path d="M79.7,65.2c0-2.9-2.4-5.3-5.3-5.3c-2.8,0-5.1,2.2-5.3,5c-1-1.2-2.5-2-4.1-2c-2.9,0-5.3,2.4-5.3,5.3c0,2.9,2.4,5.3,5.3,5.3
		c0.6,0,1.2-0.1,1.7-0.3c0.5,2.4,2.6,4.1,5.2,4.1c2.9,0,5.3-2.4,5.3-5.3c0-0.7-0.2-1.4-0.4-2.1C78.5,69.1,79.7,67.3,79.7,65.2z
		 M64.9,72.8c-2.5,0-4.6-2-4.6-4.6c0-2.5,2-4.6,4.6-4.6c2.2,0,4,1.6,4.5,3.7c-1.8,0.9-3,2.7-3,4.8c0,0.1,0,0.3,0,0.5
		C66,72.7,65.5,72.8,64.9,72.8z M71.8,76.6c-2.5,0-4.6-2-4.6-4.6c0-2.5,2-4.5,4.5-4.6c0.1,0,0.1,0,0.2,0c0,0,0.1,0,0.1,0
		c1.6,0.1,3,1,3.7,2.5l0.1,0.3c0,0,0.4,1.2,0.4,1.8C76.4,74.6,74.3,76.6,71.8,76.6z M76.3,69.3c-0.9-1.4-2.4-2.4-4.2-2.5
		c-0.1,0-0.1,0-0.2,0c0,0-0.1,0-0.1,0c0,0,0,0,0,0c0,0,0,0,0,0c-0.5,0-1,0.1-1.5,0.2c-0.2-0.6-0.4-1.2-0.4-1.8c0-2.5,2-4.6,4.6-4.6
		s4.6,2,4.6,4.6C78.9,67,77.9,68.6,76.3,69.3z"/>
	<path d="M66.6,66c0-0.6-0.6-1.1-1.4-1.1s-1.4,0.5-1.4,1.1c0,0.6,0.6,1.1,1.4,1.1c0.2,0,0.4-0.2,0.4-0.4c0-0.2-0.2-0.4-0.4-0.4
		c-0.4,0-0.7-0.2-0.7-0.4c0-0.2,0.3-0.4,0.7-0.4s0.7,0.2,0.7,0.4c0,0.2,0.2,0.4,0.4,0.4C66.5,66.3,66.6,66.2,66.6,66z"/>
	<path d="M74.6,61.5c-0.8,0-1.4,0.5-1.4,1.1s0.6,1.1,1.4,1.1c0.2,0,0.4-0.2,0.4-0.4S74.8,63,74.6,63c-0.4,0-0.7-0.2-0.7-0.4
		c0-0.2,0.3-0.4,0.7-0.4c0.4,0,0.7,0.2,0.7,0.4c0,0.2,0.2,0.4,0.4,0.4c0.2,0,0.4-0.2,0.4-0.4C76,62,75.4,61.5,74.6,61.5z"/>
	<path d="M72.1,68.3c-0.8,0-1.4,0.5-1.4,1.1s0.6,1.1,1.4,1.1c0.2,0,0.4-0.2,0.4-0.4s-0.2-0.4-0.4-0.4c-0.4,0-0.7-0.2-0.7-0.4
		c0-0.2,0.3-0.4,0.7-0.4c0.4,0,0.7,0.2,0.7,0.4c0,0.2,0.2,0.4,0.4,0.4c0.2,0,0.4-0.2,0.4-0.4C73.5,68.8,72.9,68.3,72.1,68.3z"/>
</g>
<g>
	<g>
		<path d="M85.5,71.4c-1,0-1.7-0.7-1.7-1.7c0-0.9,0.8-1.7,1.7-1.7c1,0,1.7,0.7,1.7,1.7C87.2,70.6,86.4,71.4,85.5,71.4z M85.5,68.7
			c-0.6,0-1.1,0.5-1.1,1c0,0.6,0.5,1,1.1,1c0.6,0,1.1-0.5,1.1-1C86.6,69.1,86.1,68.7,85.5,68.7z"/>
		<path d="M89,64.9c-0.9,0-1.5-0.5-1.5-1.2c0-0.7,0.7-1.2,1.5-1.2s1.5,0.5,1.5,1.2C90.5,64.4,89.9,64.9,89,64.9z M89,63.2
			c-0.5,0-0.9,0.3-0.9,0.6c0,0.3,0.4,0.6,0.9,0.6c0.5,0,0.9-0.3,0.9-0.6C89.9,63.5,89.5,63.2,89,63.2z"/>
		<path d="M85.5,71.4c-1,0-1.7-0.7-1.7-1.7c0-0.9,0.8-1.7,1.7-1.7c1,0,1.7,0.7,1.7,1.7C87.2,70.6,86.4,71.4,85.5,71.4z M85.5,68.7
			c-0.6,0-1.1,0.5-1.1,1c0,0.6,0.5,1,1.1,1c0.6,0,1.1-0.5,1.1-1C86.6,69.1,86.1,68.7,85.5,68.7z"/>
		<g>
			<path d="M99.5,64.8c0-0.1-0.1-0.3-0.4-0.6c-1.6-1.7-3.6-2.9-5.9-3.6C92,60.2,90.7,60,89.4,60c-0.3,0-0.5,0.1-0.7,0.2
				c-0.1,0.1-4.1,3.5-4.9,4.1c-0.1,0.1-0.2,0.2-0.2,0.3c-0.1,0.2,0,0.3,0.2,0.4c0.2,0.1,0.4,0.3,0.4,0.4c0,0.1-0.1,0.3-0.4,0.4
				c-0.2,0.1-0.4,0.1-0.6,0.1c-0.2,0-0.4,0-0.5-0.1c0,0-0.1-0.1-0.3-0.1c-0.2,0-0.3,0.1-0.4,0.2c0,0-0.1,0.1-0.2,0.2
				c-0.8,0.7-1.4,1.1-1.5,1.3c-0.2,0.2-0.3,0.4-0.3,0.4c-0.1,0.1-0.3,0.4-0.3,0.9v1.6c0,0.3,0.2,0.5,0.4,0.5c0,0,0.1,0,0.1,0l0,0
				c0,0,0,0,0.1,0c0.3,0,0.5,0.3,0.5,0.6c0,0.3-0.2,0.6-0.5,0.6c0,0,0,0-0.1,0c0,0,0,0-0.1,0c-0.2,0-0.5,0.2-0.5,0.5v2.3
				c0,0.3,0.2,0.6,0.6,0.6c0,0,0.1,0,0.1,0c0.2,0,8.4-1.4,13.7-2.3c2.5-0.4,4.4-0.7,5.1-0.9c0.2,0,0.5-0.2,0.5-0.6c0,0,0-0.2,0-0.5
				c0-1.2,0-4.4,0-5.6C99.7,65.1,99.5,64.8,99.5,64.8z M90.9,66.4c0.1-0.2,0.2-0.4,0.8-0.4c0.1,0,0.1,0,0.2,0c0.3,0,0.5,0.1,0.7,0.2
				v0h0c0.1,0.1,0.3,0.3,0.3,0.5c0,0.5-0.4,1-1,1c-0.6,0-1-0.4-1-1C90.9,66.5,90.9,66.5,90.9,66.4z M82.2,66.6
				c0.1-0.1,0.2-0.2,0.2-0.2c0,0,0.1,0,0.1,0c0.2,0.1,0.5,0.1,0.7,0.1c0.3,0,0.6-0.1,0.8-0.1c0.5-0.2,0.8-0.6,0.8-1
				c0-0.2-0.1-0.5-0.3-0.7c0,0-0.1-0.1,0-0.1c1.1-0.9,4.5-3.9,4.6-3.9c0.1,0,0.1-0.1,0.3-0.1c2.1,0,6,0.5,9.3,4c0,0,0,0,0,0l-0.3,0
				l-5.5,0.9c-0.3-0.2-0.6-0.3-1-0.3c-0.1,0-0.2,0-0.2,0c-0.4,0.1-1,0.2-1.2,0.7L81,67.6C81.4,67.3,82,66.8,82.2,66.6z M99,71.1
				c0,0.2,0,0.4,0,0.4c-0.7,0.1-2.6,0.4-5,0.8c-5.5,0.9-12.9,2.2-13.7,2.3v-2c0.6,0,1.2-0.5,1.2-1.2c0-0.7-0.5-1.2-1.2-1.2v-1.6
				c0-0.2,0.1-0.3,0.2-0.3l9.7-1.6c0,0,0,0,0,0c0,0.9,0.7,1.6,1.6,1.6c0.9,0,1.6-0.7,1.6-1.6c0-0.3-0.1-0.5-0.1-0.5l5.2-0.9l0.5-0.1
				c0,0.1,0,0.2,0,0.3C99,66.7,99,69.9,99,71.1z"/>
			<path d="M89,64.9c0.9,0,1.5-0.5,1.5-1.2c0-0.7-0.7-1.2-1.5-1.2s-1.5,0.5-1.5,1.2C87.5,64.4,88.1,64.9,89,64.9z M89,63.2
				c0.5,0,0.9,0.3,0.9,0.6c0,0.3-0.4,0.6-0.9,0.6c-0.5,0-0.9-0.3-0.9-0.6C88.1,63.5,88.5,63.2,89,63.2z"/>
		</g>
	</g>
</g>
<g>
	<g id="Bottles_2_">
		<g>
			<path d="M108.9,66.2v-1.7c0-0.3-0.2-0.6-0.6-0.6h-0.6c-0.2-1.1-1.1-2-2.2-2.2v-1.2c0-0.3-0.2-0.6-0.6-0.6c-0.3,0-0.6,0.2-0.6,0.6
				v1.2c-1.1,0.2-2,1-2.2,2.2h-0.6c-0.3,0-0.6,0.2-0.6,0.6v1.7c-1.2,0.3-1.7,1.5-1.7,2.8v8.3c0,1.5,0.7,2.8,2.2,2.8h6.7
				c1.5,0,2.2-1.3,2.2-2.8V69C110.6,67.6,110.2,66.4,108.9,66.2z M105,62.9c0.8,0,1.5,0.4,1.7,1.1h-3.3
				C103.5,63.3,104.2,62.9,105,62.9z M102.2,65.1h5.6v1.1h-5.6V65.1z M109.4,77.3c0,0.9-0.2,1.7-1.1,1.7h-6.7
				c-0.9,0-1.1-0.8-1.1-1.7l0,0h2.2v-1.1h-2.2v-1.1h2.2V74h-2.2v-1.1h2.2v-1.1h-2.2v-1.1h2.2v-1.1h-2.2V69c0-0.9,0.2-1.7,1.1-1.7
				h6.7c0.9,0,1.1,0.8,1.1,1.7V77.3L109.4,77.3z"/>
		</g>
	</g>
</g>
<g>
	<path d="M96,40.7H85.5c-0.2,0-0.4-0.2-0.4-0.4c0-0.2-0.1-0.3-0.3-0.3c-0.2,0-0.3,0.1-0.3,0.3c0,0.6,0.5,1,1,1H96
		c1.8,0,3.3,1.5,3.3,3.3c0,1.6-1.2,3-2.7,3.3c0.8-0.9,1.3-2.1,1.3-3.4v-0.7c0-0.6-0.5-1-1-1h-9.3c-2.3,0-4.2,0.9-5.6,2.5
		c-1.3,1.5-2,3.7-2,6.1c0,4.8,3.9,8.6,8.6,8.6h4.1c0.1,0,0.2-0.1,0.3-0.2c0.1-0.1,0.1-0.2,0-0.3l-0.6-1.3l0.6-1.6
		c0-0.1,0-0.3-0.1-0.4c-0.1-0.1-0.2-0.1-0.4-0.1L88.6,58c-2.3,0-4.1-1.9-4.1-4.2c0-2.2,1.8-4.1,4-4.2l1.5,1.8
		c0.1,0.1,0.1,0.1,0.1,0.2v1.8c0,0.2,0.1,0.3,0.3,0.3c0.2,0,0.3-0.1,0.3-0.3v-1.8c0-0.2-0.1-0.5-0.2-0.6l-1.1-1.3h0.9l1.5,1.8
		c0.1,0.1,0.1,0.1,0.1,0.2v1.8c0,0.2,0.1,0.3,0.3,0.3c0.2,0,0.3-0.1,0.3-0.3v-1.8c0-0.2-0.1-0.5-0.2-0.6L91,49.6h0.9l1.5,1.8
		c0.1,0.1,0.1,0.1,0.1,0.2v1.8c0,0.2,0.1,0.3,0.3,0.3c0.2,0,0.3-0.1,0.3-0.3v-1.8c0-0.2-0.1-0.5-0.2-0.6l-1.1-1.3
		c1.2,0,2.2-0.4,3.1-1c0,0,0,0,0,0H96c2.2,0,4-1.8,4-4C100,42.5,98.2,40.7,96,40.7z M97.3,43.8v0.7c0,2.5-2,4.5-4.5,4.5h-4.1
		c0,0,0,0,0,0c0,0,0,0,0,0c-0.2,0-0.5,0-0.7,0.1v-5.6h9C97.1,43.4,97.3,43.6,97.3,43.8z M87.3,43.4v5.8c-0.5,0.2-1,0.4-1.4,0.7
		l-3.4-4.1c0,0,0,0,0.1-0.1C83.7,44.3,85.3,43.5,87.3,43.4z M84.2,55.8l-1.6,0.9c-1.2-1.4-1.9-3.2-2-5.1l3.3,1.1
		c-0.1,0.4-0.2,0.8-0.2,1.2C83.8,54.5,84,55.2,84.2,55.8z M91.8,58.4l0.5,0.9h-3.3v-0.8l3.2-1.3l-0.4,1
		C91.7,58.3,91.7,58.4,91.8,58.4z M88.3,58.6v0.7c-2-0.1-3.9-0.9-5.2-2.2l1.4-0.8C85.3,57.6,86.7,58.5,88.3,58.6z M84.2,52l-3.5-1.2
		c0.1-1.7,0.6-3.2,1.4-4.5l3.3,4C84.8,50.8,84.4,51.3,84.2,52z"/>
	<path d="M93.1,46.2c0.6,0,1-0.5,1-1s-0.5-1-1-1c-0.6,0-1,0.5-1,1S92.6,46.2,93.1,46.2z M93.1,44.8c0.2,0,0.4,0.2,0.4,0.4
		s-0.2,0.4-0.4,0.4s-0.4-0.2-0.4-0.4S92.9,44.8,93.1,44.8z"/>
</g>
<g>
	<path d="M116,40.7h-10.5c-0.2,0-0.4-0.2-0.4-0.4c0-0.2-0.1-0.3-0.3-0.3c-0.2,0-0.3,0.1-0.3,0.3c0,0.6,0.5,1,1,1H116
		c1.8,0,3.3,1.5,3.3,3.3c0,1.6-1.2,3-2.7,3.3c0.8-0.9,1.3-2.1,1.3-3.4v-0.7c0-0.6-0.5-1-1-1h-9.3c-2.3,0-4.2,0.9-5.6,2.5
		c-1.3,1.5-2,3.7-2,6.1c0,4.8,3.9,8.6,8.6,8.6h4.1c0.1,0,0.2-0.1,0.3-0.2c0.1-0.1,0.1-0.2,0-0.3l-0.6-1.3l0.6-1.6
		c0-0.1,0-0.3-0.1-0.4c-0.1-0.1-0.2-0.1-0.4-0.1l-4.1,1.7c-2.3,0-4.1-1.9-4.1-4.2c0-2.2,1.8-4.1,4-4.2l1.5,1.8
		c0.1,0.1,0.1,0.1,0.1,0.2v1.8c0,0.2,0.1,0.3,0.3,0.3c0.2,0,0.3-0.1,0.3-0.3v-1.8c0-0.2-0.1-0.5-0.2-0.6l-1.1-1.3h0.9l1.5,1.8
		c0.1,0.1,0.1,0.1,0.1,0.2v1.8c0,0.2,0.1,0.3,0.3,0.3c0.2,0,0.3-0.1,0.3-0.3v-1.8c0-0.2-0.1-0.5-0.2-0.6l-1.1-1.3h0.9l1.5,1.8
		c0.1,0.1,0.1,0.1,0.1,0.2v1.8c0,0.2,0.1,0.3,0.3,0.3c0.2,0,0.3-0.1,0.3-0.3v-1.8c0-0.2-0.1-0.5-0.2-0.6l-1.1-1.3
		c1.2,0,2.2-0.4,3.1-1c0,0,0,0,0,0h0.2c2.2,0,4-1.8,4-4C120,42.5,118.2,40.7,116,40.7z M117.3,43.8v0.7c0,2.5-2,4.5-4.5,4.5h-4.1
		c0,0,0,0,0,0c0,0,0,0,0,0c-0.2,0-0.5,0-0.7,0.1v-5.6h9C117.1,43.4,117.3,43.6,117.3,43.8z M107.3,43.4v5.8c-0.5,0.2-1,0.4-1.4,0.7
		l-3.4-4.1c0,0,0,0,0.1-0.1C103.7,44.3,105.3,43.5,107.3,43.4z M104.2,55.8l-1.6,0.9c-1.2-1.4-1.9-3.2-2-5.1l3.3,1.1
		c-0.1,0.4-0.2,0.8-0.2,1.2C103.8,54.5,104,55.2,104.2,55.8z M111.8,58.4l0.5,0.9h-3.3v-0.8l3.2-1.3l-0.4,1
		C111.7,58.3,111.7,58.4,111.8,58.4z M108.3,58.6v0.7c-2-0.1-3.9-0.9-5.2-2.2l1.4-0.8C105.3,57.6,106.7,58.5,108.3,58.6z M104.2,52
		l-3.5-1.2c0.1-1.7,0.6-3.2,1.4-4.5l3.3,4C104.8,50.8,104.4,51.3,104.2,52z"/>
	<path d="M113.1,46.2c0.6,0,1-0.5,1-1s-0.5-1-1-1c-0.6,0-1,0.5-1,1S112.6,46.2,113.1,46.2z M113.1,44.8c0.2,0,0.4,0.2,0.4,0.4
		s-0.2,0.4-0.4,0.4s-0.4-0.2-0.4-0.4S112.9,44.8,113.1,44.8z"/>
</g>
<g>
	<path d="M116,20.7h-10.5c-0.2,0-0.4-0.2-0.4-0.4c0-0.2-0.1-0.3-0.3-0.3c-0.2,0-0.3,0.1-0.3,0.3c0,0.6,0.5,1,1,1H116
		c1.8,0,3.3,1.5,3.3,3.3c0,1.6-1.2,3-2.7,3.3c0.8-0.9,1.3-2.1,1.3-3.4v-0.7c0-0.6-0.5-1-1-1h-9.3c-2.3,0-4.2,0.9-5.6,2.5
		c-1.3,1.5-2,3.7-2,6.1c0,4.8,3.9,8.6,8.6,8.6h4.1c0.1,0,0.2-0.1,0.3-0.2c0.1-0.1,0.1-0.2,0-0.3l-0.6-1.3l0.6-1.6
		c0-0.1,0-0.3-0.1-0.4c-0.1-0.1-0.2-0.1-0.4-0.1l-4.1,1.7c-2.3,0-4.1-1.9-4.1-4.2c0-2.2,1.8-4.1,4-4.2l1.5,1.8
		c0.1,0.1,0.1,0.1,0.1,0.2v1.8c0,0.2,0.1,0.3,0.3,0.3c0.2,0,0.3-0.1,0.3-0.3v-1.8c0-0.2-0.1-0.5-0.2-0.6l-1.1-1.3h0.9l1.5,1.8
		c0.1,0.1,0.1,0.1,0.1,0.2v1.8c0,0.2,0.1,0.3,0.3,0.3c0.2,0,0.3-0.1,0.3-0.3v-1.8c0-0.2-0.1-0.5-0.2-0.6l-1.1-1.3h0.9l1.5,1.8
		c0.1,0.1,0.1,0.1,0.1,0.2v1.8c0,0.2,0.1,0.3,0.3,0.3c0.2,0,0.3-0.1,0.3-0.3v-1.8c0-0.2-0.1-0.5-0.2-0.6l-1.1-1.3
		c1.2,0,2.2-0.4,3.1-1c0,0,0,0,0,0h0.2c2.2,0,4-1.8,4-4S118.2,20.7,116,20.7z M117.3,23.8v0.7c0,2.5-2,4.5-4.5,4.5h-4.1c0,0,0,0,0,0
		c0,0,0,0,0,0c-0.2,0-0.5,0-0.7,0.1v-5.6h9C117.1,23.4,117.3,23.6,117.3,23.8z M107.3,23.4v5.8c-0.5,0.2-1,0.4-1.4,0.7l-3.4-4.1
		c0,0,0,0,0.1-0.1C103.7,24.3,105.3,23.5,107.3,23.4z M104.2,35.8l-1.6,0.9c-1.2-1.4-1.9-3.2-2-5.1l3.3,1.1
		c-0.1,0.4-0.2,0.8-0.2,1.2C103.8,34.5,104,35.2,104.2,35.8z M111.8,38.4l0.5,0.9h-3.3v-0.8l3.2-1.3l-0.4,1
		C111.7,38.3,111.7,38.4,111.8,38.4z M108.3,38.6v0.7c-2-0.1-3.9-0.9-5.2-2.2l1.4-0.8C105.3,37.6,106.7,38.5,108.3,38.6z M104.2,32
		l-3.5-1.2c0.1-1.7,0.6-3.2,1.4-4.5l3.3,4C104.8,30.8,104.4,31.3,104.2,32z"/>
	<path d="M113.1,26.2c0.6,0,1-0.5,1-1c0-0.6-0.5-1-1-1c-0.6,0-1,0.5-1,1C112.1,25.7,112.6,26.2,113.1,26.2z M113.1,24.8
		c0.2,0,0.4,0.2,0.4,0.4c0,0.2-0.2,0.4-0.4,0.4s-0.4-0.2-0.4-0.4C112.7,25,112.9,24.8,113.1,24.8z"/>
</g>
<g>
	<path d="M116,0.7h-10.5c-0.2,0-0.4-0.2-0.4-0.4c0-0.2-0.1-0.3-0.3-0.3c-0.2,0-0.3,0.1-0.3,0.3c0,0.6,0.5,1,1,1H116
		c1.8,0,3.3,1.5,3.3,3.3c0,1.6-1.2,3-2.7,3.3c0.8-0.9,1.3-2.1,1.3-3.4V3.8c0-0.6-0.5-1-1-1h-9.3c-2.3,0-4.2,0.9-5.6,2.5
		c-1.3,1.5-2,3.7-2,6.1c0,4.8,3.9,8.6,8.6,8.6h4.1c0.1,0,0.2-0.1,0.3-0.2c0.1-0.1,0.1-0.2,0-0.3l-0.6-1.3l0.6-1.6
		c0-0.1,0-0.3-0.1-0.4c-0.1-0.1-0.2-0.1-0.4-0.1l-4.1,1.7c-2.3,0-4.1-1.9-4.1-4.2c0-2.2,1.8-4.1,4-4.2l1.5,1.8
		c0.1,0.1,0.1,0.1,0.1,0.2v1.8c0,0.2,0.1,0.3,0.3,0.3c0.2,0,0.3-0.1,0.3-0.3v-1.8c0-0.2-0.1-0.5-0.2-0.6l-1.1-1.3h0.9l1.5,1.8
		c0.1,0.1,0.1,0.1,0.1,0.2v1.8c0,0.2,0.1,0.3,0.3,0.3c0.2,0,0.3-0.1,0.3-0.3v-1.8c0-0.2-0.1-0.5-0.2-0.6L111,9.6h0.9l1.5,1.8
		c0.1,0.1,0.1,0.1,0.1,0.2v1.8c0,0.2,0.1,0.3,0.3,0.3c0.2,0,0.3-0.1,0.3-0.3v-1.8c0-0.2-0.1-0.5-0.2-0.6l-1.1-1.3
		c1.2,0,2.2-0.4,3.1-1c0,0,0,0,0,0h0.2c2.2,0,4-1.8,4-4S118.2,0.7,116,0.7z M117.3,3.8v0.7c0,2.5-2,4.5-4.5,4.5h-4.1c0,0,0,0,0,0
		c0,0,0,0,0,0c-0.2,0-0.5,0-0.7,0.1V3.4h9C117.1,3.4,117.3,3.6,117.3,3.8z M107.3,3.4v5.8c-0.5,0.2-1,0.4-1.4,0.7l-3.4-4.1
		c0,0,0,0,0.1-0.1C103.7,4.3,105.3,3.5,107.3,3.4z M104.2,15.8l-1.6,0.9c-1.2-1.4-1.9-3.2-2-5.1l3.3,1.1c-0.1,0.4-0.2,0.8-0.2,1.2
		C103.8,14.5,104,15.2,104.2,15.8z M111.8,18.4l0.5,0.9h-3.3v-0.8l3.2-1.3l-0.4,1C111.7,18.3,111.7,18.4,111.8,18.4z M108.3,18.6
		v0.7c-2-0.1-3.9-0.9-5.2-2.2l1.4-0.8C105.3,17.6,106.7,18.5,108.3,18.6z M104.2,12l-3.5-1.2c0.1-1.7,0.6-3.2,1.4-4.5l3.3,4
		C104.8,10.8,104.4,11.3,104.2,12z"/>
	<path d="M113.1,6.2c0.6,0,1-0.5,1-1s-0.5-1-1-1c-0.6,0-1,0.5-1,1C112.1,5.7,112.6,6.2,113.1,6.2z M113.1,4.8c0.2,0,0.4,0.2,0.4,0.4
		c0,0.2-0.2,0.4-0.4,0.4s-0.4-0.2-0.4-0.4C112.7,5,112.9,4.8,113.1,4.8z"/>
</g>
</svg>
