<?xml version="1.0" encoding="utf-8"?>
<!-- Generator: Adobe Illustrator 21.1.0, SVG Export Plug-In . SVG Version: 6.00 Build 0)  -->
<svg version="1.1" id="Layer_1" xmlns="http://www.w3.org/2000/svg" xmlns:xlink="http://www.w3.org/1999/xlink" x="0px" y="0px" width="80" height="40"
	 viewBox="0 0 80 40" style="enable-background:new 0 0 80 40;" xml:space="preserve">
<path d="M60.7,1.7c1.6,0,7.1,0.5,9.7,6.2c0.9,1.9,0.7,5.3,0.5,7.9l0,0.1c0,0.3,0,0.6,0,0.8c0.1,0.1,0.3,0.1,0.7,0.1
	c0.5,0,1.1-0.2,1.7-0.5c0.3-0.1,0.6-0.2,0.8-0.2c0.3,0,0.6,0,0.8,0.1c0.7,0.2,1.2,0.8,1.2,1.4c0,0.7-0.6,1.4-2,1.9
	c-0.1,0-0.3,0.1-0.6,0.2c-0.7,0.2-1.9,0.6-2.2,1.3c-0.1,0.4-0.1,0.9,0.2,1.4l0,0c0.1,0.2,2.5,5.7,7.8,6.6c0.4,0.1,0.7,0.4,0.7,0.8
	c0,0.1,0,0.2-0.1,0.4c-0.4,0.9-2.1,1.6-5.1,2.1c-0.1,0.1-0.2,0.6-0.3,0.9c0,0.3-0.1,0.6-0.2,0.9c-0.1,0.4-0.4,0.7-0.9,0.7h0
	c-0.2,0-0.5,0-0.9-0.1c-0.6-0.1-1.2-0.2-2.1-0.2c-0.5,0-1,0-1.5,0.1c-1,0.2-1.8,0.8-2.8,1.4c-1.4,1-3,2.1-5.4,2.1
	c-0.1,0-0.2,0-0.3,0h-0.2c-2.4,0-4-1.1-5.4-2.1c-1-0.7-1.8-1.3-2.8-1.4c-0.5-0.1-1-0.1-1.5-0.1c-0.9,0-1.6,0.1-2.1,0.2
	c-0.3,0.1-0.6,0.1-0.9,0.1c-0.6,0-0.9-0.4-1-0.7s-0.1-0.6-0.2-0.9c-0.1-0.3-0.2-0.8-0.3-0.9c-3.1-0.4-4.8-1-5.2-2
	c0-0.1-0.1-0.2-0.1-0.4c0-0.4,0.3-0.8,0.7-0.8c5.3-0.9,7.7-6.3,7.8-6.6l0,0c0.3-0.6,0.4-1.1,0.2-1.4c-0.3-0.7-1.4-1.1-2.2-1.3
	c-0.2,0-0.4-0.1-0.6-0.2c-1.8-0.7-2.1-1.5-2-2.1c0.1-0.8,1.1-1.3,1.9-1.3c0.2,0,0.4,0,0.6,0.1c0.7,0.3,1.3,0.5,1.8,0.5
	c0.4,0,0.6-0.1,0.8-0.2l-0.1-0.9c-0.2-2.7-0.4-6,0.5-7.9c2.5-5.8,8-6.2,9.6-6.2L60.7,1.7C60.6,1.7,60.7,1.7,60.7,1.7z"/>
<path d="M19.6,0.4c-5.3,0-6,0-8.1,0.1C9.4,0.6,8,0.9,6.8,1.4C5.5,1.9,4.4,2.6,3.3,3.7C2.2,4.8,1.5,5.9,1,7.2
	c-0.5,1.2-0.8,2.7-0.9,4.8C0,14,0,14.7,0,20s0,6,0.1,8.1c0.1,2.1,0.4,3.5,0.9,4.8c0.5,1.3,1.2,2.4,2.3,3.5c1.1,1.1,2.2,1.8,3.5,2.3
	c1.2,0.5,2.7,0.8,4.8,0.9c2.1,0.1,2.8,0.1,8.1,0.1s6,0,8.1-0.1c2.1-0.1,3.5-0.4,4.8-0.9c1.3-0.5,2.4-1.2,3.5-2.3
	c1.1-1.1,1.8-2.2,2.3-3.5c0.5-1.2,0.8-2.7,0.9-4.8c0.1-2.1,0.1-2.8,0.1-8.1s0-6-0.1-8.1c-0.1-2.1-0.4-3.5-0.9-4.8
	c-0.5-1.3-1.2-2.4-2.3-3.5c-1.1-1.1-2.2-1.8-3.5-2.3c-1.2-0.5-2.7-0.8-4.8-0.9C25.6,0.4,24.9,0.4,19.6,0.4z M19.6,3.9
	c5.2,0,5.9,0,7.9,0.1c1.9,0.1,2.9,0.4,3.6,0.7c0.9,0.4,1.6,0.8,2.3,1.5c0.7,0.7,1.1,1.3,1.5,2.3c0.3,0.7,0.6,1.7,0.7,3.6
	c0.1,2.1,0.1,2.7,0.1,7.9s0,5.9-0.1,7.9c-0.1,1.9-0.4,2.9-0.7,3.6c-0.4,0.9-0.8,1.6-1.5,2.3s-1.3,1.1-2.3,1.5
	c-0.7,0.3-1.7,0.6-3.7,0.7c-2.1,0.1-2.7,0.1-7.9,0.1s-5.9,0-7.9-0.1c-1.9-0.1-3-0.4-3.7-0.7c-0.9-0.4-1.6-0.8-2.3-1.5
	c-0.7-0.7-1.1-1.3-1.5-2.3c-0.3-0.7-0.6-1.7-0.7-3.7c-0.1-2.1-0.1-2.7-0.1-7.9s0-5.9,0.1-7.9c0.1-1.9,0.4-3,0.7-3.7
	C4.6,7.5,5,6.8,5.7,6.1S7,5,8,4.7C8.6,4.4,9.7,4.1,11.6,4C13.7,3.9,14.3,3.9,19.6,3.9L19.6,3.9z M19.6,9.9C14,9.9,9.5,14.4,9.5,20
	c0,5.6,4.5,10.1,10.1,10.1c5.6,0,10.1-4.5,10.1-10.1C29.7,14.4,25.2,9.9,19.6,9.9z M19.6,26.5c-3.6,0-6.5-2.9-6.5-6.5
	s2.9-6.5,6.5-6.5s6.5,2.9,6.5,6.5S23.2,26.5,19.6,26.5z M32.4,9.5c0,1.3-1.1,2.4-2.4,2.4s-2.4-1.1-2.4-2.4s1.1-2.4,2.4-2.4
	S32.4,8.2,32.4,9.5z"/>
</svg>
