<?xml version="1.0" encoding="utf-8"?><svg width="320" height="206" viewBox="0 0 320 206" xmlns="http://www.w3.org/2000/svg" xmlns:xlink="http://www.w3.org/1999/xlink"><svg viewBox="0 0 52.8 64" width="52.8" height="64" id="bell-pepper" x="64" y="141.6" xmlns="http://www.w3.org/2000/svg"><path d="M49.2 16.3c-1.9-2-4.6-3.2-7.4-3.2-3.1 0-5.9 1.4-7.7 3.7-1-1.2-2.2-2.2-3.6-2.8 0-2.9-.4-7.5-2.3-10.2-1.7-2.5-4.3-3.6-7-2.9-2.8.7-4.8 3.2-5.2 6.4-.3 2.1 1.2 4 3.3 4.3 1 .1 2-.2 2.8-.8.1-.1.3-.2.4-.4.1.9.2 2 .3 3.3-1.6.6-3 1.6-4.1 3C16.8 14.4 14 13 11 13c-2.8 0-5.5 1.2-7.4 3.2C1.8 18.1 1 20.5 1.1 23c.7 10.7 4 26.1 6.2 33 .8 2.7 3.4 7.3 7.6 7.3 2.2 0 4.3-.9 5.7-2.5 1.4 1.6 3.5 2.5 5.7 2.5 2.3 0 4.3-1 5.8-2.6 1.4 1.6 3.5 2.6 5.8 2.6 4.3 0 6.8-4.6 7.6-7.3 2.1-7 5.4-22.3 6.2-33 .1-2.5-.8-4.9-2.5-6.7zm-27.5-10c-.2.2-.6.7-.7 1.6 0 .4-.2.7-.5.9-.3.2-.6.3-1 .3-.7-.1-1.2-.8-1.2-1.5.3-2.2 1.6-3.9 3.4-4.3 1.6-.4 3.2.3 4.3 1.9 1.1 1.5 1.7 4.4 1.8 8-.5-.1-1.1-.1-1.6-.1-.4 0-.7 0-1.1.1-.1-1.9-.3-5-1.3-6.4-.1-.2-.3-.4-.4-.5-.4-.6-1.2-.5-1.7 0zm27.5 16.5c-.7 10.5-4 25.6-6 32.5-.5 1.5-2.3 5.6-5.2 5.6-2 0-3.8-1.1-4.7-2.9-.2-.4-.6-.7-1.1-.7-.5 0-.9.3-1.1.7-.9 1.8-2.7 2.9-4.7 2.9-1.9 0-3.7-1.1-4.6-2.8-.2-.4-.6-.7-1.1-.7-.5 0-.9.3-1.1.7-.9 1.7-2.7 2.8-4.6 2.8-2.9 0-4.8-4-5.2-5.6-2.1-6.8-5.4-21.9-6-32.5-.1-1.8.5-3.5 1.8-4.9 1.4-1.5 3.5-2.4 5.6-2.4 2.8 0 5.3 1.5 6.6 4 .2.4.6.7 1.1.7s.9-.3 1.1-.7c1.3-2.5 3.8-4 6.6-4s5.4 1.6 6.6 4.1c.2.4.6.7 1.1.7.5 0 .9-.3 1.1-.7 1.3-2.5 3.8-4.1 6.6-4.1 2.1 0 4.1.9 5.6 2.4 1 1.4 1.7 3.2 1.6 4.9z"/><path d="M22.1 54.3l-1-19.6c0-.7-.6-1.2-1.3-1.2-.7 0-1.2.6-1.2 1.3l1 19.6c0 .7.6 1.2 1.2 1.2h.1c.7 0 1.3-.6 1.2-1.3zM20.9 29.3l-.2-3.5c0-.7-.6-1.2-1.3-1.2-.7 0-1.2.6-1.2 1.3l.2 3.5c0 .7.6 1.2 1.2 1.2h.1c.7 0 1.2-.6 1.2-1.3zM33 49.7c-.7 0-1.3.5-1.3 1.2l-.2 3.4c0 .7.5 1.3 1.2 1.3h.1c.7 0 1.2-.5 1.2-1.2l.2-3.4c.1-.7-.5-1.3-1.2-1.3zM34.4 22.3c-.7 0-1.3.5-1.3 1.2L32 45.2c0 .7.5 1.3 1.2 1.3h.1c.7 0 1.2-.5 1.2-1.2l1.1-21.6c0-.8-.5-1.3-1.2-1.4z"/></svg><svg id="brown-pasta" viewBox="0 0 64 64" width="64" height="64" x="192" y="64" xmlns="http://www.w3.org/2000/svg"><style>.bst0{opacity:.6;enable-background:new}</style><path id="bXMLID_807_" d="M62 29l-3.8-6.9c-.9-1.6-2.5-2.8-4.3-3.1-1.1-3.8-4.6-6.7-8.8-6.7-1.8 0-3.3 1.2-3.8 2.9-1.7-1.8-4-2.9-6.7-2.9-1.8 0-3.3 1.2-3.8 2.9-1.7-1.8-4-2.9-6.7-2.9-1.8 0-3.3 1.2-3.8 2.9-1.7-1.8-4-2.9-6.7-2.9-2.2 0-3.9 1.8-3.9 3.9V19c-3.2.5-6.1 2.4-7.7 5.3C.2 27.6.2 31.6 2 35l3.8 6.9c.9 1.6 2.5 2.8 4.3 3.1 1.1 3.9 4.6 6.7 8.8 6.7 1.8 0 3.3-1.2 3.8-2.9 1.7 1.8 4 2.9 6.7 2.9 1.8 0 3.3-1.2 3.8-2.9 1.7 1.8 4 2.9 6.7 2.9 1.8 0 3.3-1.2 3.8-2.9 1.7 1.8 4 2.9 6.7 2.9 2.2 0 3.9-1.8 3.9-3.9V45c3.2-.5 6.1-2.4 7.7-5.3 1.8-3.3 1.8-7.3 0-10.7zM9.8 42.1c-.7-.3-1.3-.9-1.7-1.6l-3.8-6.9c-1.4-2.5-1.4-5.6.1-8.1 1.2-2.1 3.2-3.5 5.4-3.9v20.5zm10.4 5.6c0 .7-.6 1.3-1.3 1.3-3.6 0-6.5-2.9-6.5-6.5V16.3c0-.7.6-1.3 1.3-1.3 3.6 0 6.5 2.9 6.5 6.5v26.2zm10.5 0c0 .7-.6 1.3-1.3 1.3-3.6 0-6.5-2.9-6.5-6.5V16.3c0-.7.6-1.3 1.3-1.3 3.6 0 6.5 2.9 6.5 6.5v26.2zm10.4 0c0 .7-.6 1.3-1.3 1.3-3.6 0-6.5-2.9-6.5-6.5V16.3c0-.7.6-1.3 1.3-1.3 3.6 0 6.5 2.9 6.5 6.5v26.2zm10.5 0c0 .7-.6 1.3-1.3 1.3-3.6 0-6.5-2.9-6.5-6.5V16.3c0-.7.6-1.3 1.3-1.3 3.6 0 6.5 2.9 6.5 6.5v26.2zm8-9.3c-1.2 2.1-3.2 3.5-5.4 3.9V21.9c.7.3 1.3.9 1.7 1.6l3.8 6.9c1.4 2.4 1.4 5.5-.1 8z"/><path class="bst0" d="M62 30c-.9-1.2-1.8-2.4-2.6-3.7-1.1-1.8-1.5-3.9-3-5.5-.6-.7-1.3-1.2-2-1.8-.1.1-.2.1-.4.1-.5 0-.7-.6-.6-.9-.7-.5-1.3-1.1-1.8-1.8-1-1.2-2.2-2.6-3.6-3.4-1.7.2-3.3.4-5 .5-.1.2-.2.3-.4.5-.3.5-.5.9-1 1.3-.3.3-1 .2-1.1-.3 0-.1-.1-.3-.1-.4h-.1c-1.2-.2-2.3-.9-3.5-1.2-.3-.1-.5-.4-.5-.6-1.6.2-3.1 1.3-4.7 1.5 0 .3-.4.5-.7.5-2.6.1-5-1.1-7.5-1.2h-.2c-.5.1-1.1.3-1.6.4-.1.2-.3.4-.6.4-.1 0-.3.2-.5.3-.2.2-.5.1-.7 0-.3 0-.7 0-1-.1-.1 0-.2-.1-.3-.2-.2 0-.4 0-.6.1-.4 0-.6-.2-.6-.6h-2.1c-.2 0-.3-.1-.4-.2-.8 0-1.6 0-2.3-.2-1 .7-.9 2.1-1.4 3.1-.2.5-.5.8-.8 1.2 0 .1-.1.2-.1.3.3.2.6.5.8.8.3.5.2 1.3-.5 1.4-.7.1-1.3-.4-1.7-.8l-.2-.2s-.1 0-.1.1c-1.4 1-3 1.7-4.3 2.6-.2.3-.4.6-.5.8-.5.7-1 1.3-1.8 1.6-.1.1-.1.2-.2.4 0 .5-.1 1-.1 1.5 0 .3-.2.5-.5.6-.1.6-.1 1.2 0 1.8.1 1.3.5 2.6.9 3.9.3 0 .5.1.6.5.2.9.5 1.8.9 2.7.3.8.6 1.6 1 2.3.7 1.3 1.9 2.4 2.3 3.9v.2l1.1 1.1c.2-.4.7-.4 1-.1 1.3 1.1 2.7 2.1 2.9 3.9 0 .1 0 .2-.1.3l.1.1c0 .1.1.1.1.1.5.4 1 .7 1.5 1 1.3.7 2.5 1.3 3.6 2.3.5-.1 1-.1 1.5-.2 1.3-.2 2.3-.7 3.3-1.5-.6-.6.3-1.5.9-.9.4.4.8.8 1 1.3.7.4 1.6.7 2.3 1.2.1 0 .1.1.1.1.7-.2 1.5-.3 1.8-.3.9-.1 1.8 0 2.7.1.4-.8 1.1-1.5 1.8-2v-.1c.1-.3.5-.6.8-.5.7.3 1.5.7 2 1.3v.1c1.2.2 2.5.5 3.7.8.7-.2 1.5-.4 2.2-.4.5-.3 1.1-.5 1.7-.6v-.1-.7c0-.8 1.3-.8 1.3 0v.4c1.3.3 2.5.8 3.7 1.2 1.1.3 2.1.5 3.2.5l1.5-.9c.3-.3.8-.6 1.3-1h-.4c-.7 0-.8-.8-.3-1.2.1-.1.2-.2.4-.3h.1c.1-.1.2-.1.3-.2-.2-.4-.1-.6-.1-1 0-.1.1-.2.2-.3.4-1.2 1.5-1.9 2.7-2.3.4-.8 1-1.4 1.7-1.9.6-1 1.5-1.9 2.6-2.1l.4-.4c.2-.8.4-1.6.7-2.3-.4-2.1-.2-4.5-.1-6.7z"/></svg><svg viewBox="0 0 64 64" width="64" height="64" id="chicken" x="128" xmlns="http://www.w3.org/2000/svg"><path d="M35.1 45.1c-.4 0-.7-.2-.8-.6-.1-.4.1-.9.6-1.1C42.7 41 48.2 34.1 51.4 30c1.2-1.6 2-2.6 2.7-3 1.3-.8 2.7-1.3 4.1-1.9.8-.3 1.7-.6 2.5-1 .9-.4.9-1.1.9-1.5-.1-.8-.7-1.7-1.8-2-.9-.2-1.3.3-2.5 1.7-.8 1-1.8 2.3-3.5 3.2-1.5.8-4.2.7-7.7.5-5.3-.2-11.9-.5-16.2 2.2-.4.2-.9.1-1.2-.3-.3-.4-.1-.9.3-1.2 4.8-3.1 11.7-2.8 17.2-2.5 3 .1 5.8.3 6.8-.3 1.3-.7 2.2-1.8 2.9-2.8 1.1-1.4 2.2-2.8 4.2-2.3 1.7.4 3 1.8 3.1 3.5.1 1.4-.6 2.7-1.9 3.2-.9.4-1.8.7-2.6 1.1-1.4.5-2.7 1-3.8 1.7-.4.2-1.3 1.4-2.2 2.6-3.1 4-9 11.5-17.4 14 0 .2-.1.2-.2.2z"/><path d="M42.9 25.7c-.2 0-.3 0-.5-.2-.4-.3-.5-.8-.2-1.2 1-1.4 2.2-2.3 2.9-2.7 1.2-.7 2.5-1 3.7-1.2 1-.2 2-.4 3-.9.9-.4.9-1.1.9-1.5-.1-.8-.7-1.7-1.8-2-.9-.2-1.3.3-2.5 1.7-.8 1-1.8 2.3-3.5 3.2-1.5.8-4.2.7-7.7.5-1.8-.1-3.9-.2-5.9-.1-.5 0-.8-.4-.8-.8 0-.5.4-.9.8-.9 2.1 0 4.2.1 6 .1 3 .1 5.8.3 6.8-.3 1.3-.7 2.2-1.8 2.9-2.8 1.1-1.4 2.2-2.8 4.2-2.3 1.7.4 3 1.8 3.1 3.5.1 1.4-.6 2.7-1.9 3.2-1.2.5-2.3.7-3.4 1-1.2.2-2.2.4-3.1 1-.5.3-1.6 1-2.4 2.2 0 .3-.3.5-.6.5z"/><path d="M42.7 49.7H13C6.2 49.7.7 44.2.7 37.4V36c0-9.8 8-17.8 17.8-17.8H23c5.9 0 11.7 2.1 16.3 5.8.4.3.4.8.1 1.2-.3.4-.8.4-1.2.1C34 21.9 28.6 20 23 20h-4.6C9.5 20 2.3 27.2 2.3 36v1.3C2.3 43.2 7.1 48 13 48h29.7c2.3 0 4.2-1.9 4.2-4.2 0-2.3-.3-4.5-1-6.7-.1-.4.1-.9.6-1 .4-.1.9.1 1 .6.7 2.3 1 4.7 1 7.2.1 3.2-2.6 5.8-5.8 5.8z"/></svg><svg viewBox="0 0 64 64" width="64" height="64" id="chili" y="77.6" xmlns="http://www.w3.org/2000/svg"><path d="M60.9 53.3c-.6-.5-1.6-1.2-2.9-2.1-4.1-2.8-11.8-8.1-18.7-15.9-2.6-2.9-4.4-6.8-6.1-10.6-2.4-5.2-4.6-10.2-8.9-11.8-2.2-.8-4.8-.7-6.9-.6h-1.5c-.1 0-.4-.2-1-1-.7-1-1.3-2.5-2-4.1-.5-1.2-1.1-2.5-1.7-3.7-.7-1.4-2.1-2.2-3.8-2.3-2.4 0-5 1.4-6.2 3.5-.7 1.4-.8 2.9 0 4.2.4.6.9 1.4 1.4 2.2.9 1.3 1.9 2.8 2.6 4.1.9 1.7.9 2.3.9 2.5-.1.3-.3.6-.4.9-1.2 2.8-3 6.5-1.6 9.7 1.9 4.4 4.5 8.9 7.6 13 3.6 4.7 7.6 8.8 12 12.1 5.1 3.8 10.5 6.5 16.1 8 3.4.9 6.9 1.4 10.4 1.4 3 0 6.1-.3 9.2-1 2.8-.6 3.7-2.3 3.9-3.2.5-2.3-1.2-4.3-2.4-5.3zM6 8.8c-.5-.8-.9-1.4-1.3-2 .2-.2.5-.7 1.3-1.1 1.1-.6 1.6-.3 1.6-.3.6 1.1 1.1 2.2 1.6 3.4 1.6 3.7 3.3 7.6 6.8 7.6h1.7c1 0 2.2-.1 3.3 0-.9 2-2.5 3.7-4.7 4.9-2.5 1.4-5.3 2-7.9 1.7.3-1 .8-1.9 1.1-2.7.2-.4.3-.7.5-1.1 1.1-2.6-1-6-4-10.4zm52.5 49c-6 1.3-11.9 1.2-17.7-.3-5.1-1.4-10-3.8-14.6-7.3C18.6 44.4 11.9 35.8 8 27c.5 0 1 .1 1.5.1 3 0 6-.8 8.7-2.3 3-1.7 5.2-4 6.4-6.8 1.8 1.8 3.3 5.1 4.8 8.4 1.8 3.9 3.8 8.3 6.8 11.7 7.3 8.2 15.2 13.6 19.4 16.5 1.1.8 2.1 1.5 2.5 1.8.6.5.8.9.9 1.1.1.1-.2.2-.5.3z"/><path d="M20.7 36.2c-.8-1.2-1-2.2-1-2.6l-4.1-.5c-.4 3.4 2.8 8.1 6.1 8.9l.9-4c-.3-.1-1.1-.6-1.9-1.8z"/></svg><svg viewBox="0 0 64 64" width="64" height="64" id="meat-steak" x="64" y="77.6" xmlns="http://www.w3.org/2000/svg"><path d="M63.3 33.7c0-7.3-3.3-14.1-9.4-19.2-5.9-5.1-13.9-8-22.3-8-9 0-16.6 1.7-21.9 5-2.9 1.8-5.2 4.1-6.7 6.8C1.6 20.7.8 23.4.6 26.4c0 .3.2 9.9.2 9.9 0 4.2.9 6.6 3.4 8.1 2.2 1.3 5.2 1.5 8.6 1.7 4.8.3 10.7.7 17 4.2 7.1 3.9 13.3 6.3 18.4 7 1.1.1 2.1.2 3.1.2 4.1 0 7.2-1.4 9.4-3.9 2.9-3.3 2.6-11.2 2.6-19.9zM10.9 13.5c4.9-3 12.1-4.7 20.6-4.7C47.8 8.9 61 20 61 33.7c0 4.2-1 7.6-3 9.9-1.9 2.3-4.8 3.5-8.5 3.5-4.7 0-10.8-2-17.4-5.9-6.3-3.6-12.7-4.3-17.9-4.8-7.9-.8-11.4-1.4-11.4-8.2.1-6.5 2.8-11.4 8.1-14.7zm48 38.6c-2.1 2.5-5.6 3.5-10.4 2.8-4.8-.7-10.8-2.9-17.6-6.7-6.7-3.7-12.9-4.1-18-4.4-6.7-.4-10-.7-10-7.6v-.9c2.5 2.5 6.6 2.9 11.2 3.4 5.2.5 11.1 1.1 16.9 4.5 7.1 4.1 13.3 6.2 18.6 6.2 4.3 0 7.9-1.5 10.2-4.3.4-.5.8-1 1.1-1.5-.1 5-.6 6.7-2 8.5z"/><path d="M20.7 28.3c4 0 7.3-2.7 7.3-5.9 0-3.3-3.3-5.9-7.3-5.9s-7.3 2.7-7.3 5.9c0 3.3 3.3 5.9 7.3 5.9zm0-9.5c2.7 0 5 1.6 5 3.6s-2.2 3.6-5 3.6c-2.7 0-5-1.6-5-3.6s2.3-3.6 5-3.6z"/></svg><svg viewBox="0 0 64 64" width="64" height="64" id="mushroom" x="128" y="77.6" xmlns="http://www.w3.org/2000/svg"><path d="M60.1 16.8c-1.8-2.8-5-6.8-10.1-10C44.8 3.6 38.9 2 32.3 2h-.5C25.1 2 19.2 3.6 14 6.8 8.8 10 5.7 14 3.9 16.8 1.2 21.3 0 26 1 28.1c.4.8 1.5 1.6 6.6 2.4 3 .4 6.9.8 11.5 1-1.5 4.2-2.5 8.2-3 11.7-.7 5.6.1 10 2.2 13.1 2.5 3.7 7 5.6 13.2 5.6h.9c6.2 0 10.7-1.9 13.2-5.6 2.2-3.1 2.9-7.6 2.2-13.1-.4-3.5-1.4-7.5-3-11.7 4.6-.2 8.5-.6 11.5-1 5.2-.8 6.2-1.6 6.6-2.4 1.1-2.1-.1-6.8-2.8-11.3zm1.1 10.4c-.6.6-5.1 1.8-17.8 2.4-.3 0-.6.2-.8.5s-.2.6-.1.9c2.4 6.3 5.9 17.9 1.5 24.3-2.1 3.1-6 4.7-11.6 4.7h-.9c-5.5 0-9.4-1.6-11.6-4.7-4.2-6.2-1.2-17.2 1.2-23.7 3.1.1 6.3.2 9.5.2h2.9c.6 0 1-.5 1-1 0-.6-.5-1-1-1-12.7.5-29.3-1.4-30.8-2.6-.4-1.2.3-5 2.9-9.3C8.2 13.7 15.9 4 31.7 4h.5C48 4 55.7 13.7 58.3 17.8c2.7 4.4 3.4 8.2 2.9 9.4z"/></svg><svg viewBox="0 0 64 64" width="64" height="64" id="olives" x="192" xmlns="http://www.w3.org/2000/svg"><path d="M29.6 46.3c-.4-1-.6-2.1-.6-3.3 0-.6-.5-1.1-1.1-1.1-.6 0-1.1.5-1.1 1.1 0 1.4.2 2.7.7 4 .2.5.6.8 1.1.8.1 0 .3 0 .4-.1.5-.2.8-.8.6-1.4zM38.8 52.8c-2.8 0-5.5-1.2-7.4-3.4-.4-.5-1.1-.5-1.6-.1s-.5 1.1-.1 1.6c2.3 2.6 5.6 4.1 9.1 4.1.6 0 1.1-.5 1.1-1.1s-.4-1.1-1.1-1.1z"/><path d="M63.4 21.3c0-9.1-7.4-16.6-16.6-16.6-8.9 0-16.1 7-16.5 15.8-3.1-3.9-7.8-6.4-13-6.4C8.2 14.1.7 21.5.7 30.7s7.4 16.6 16.6 16.6c1.8 0 3.6-.3 5.3-.9 1.7 7.4 8.3 13 16.2 13 9.1 0 16.6-7.4 16.6-16.6 0-2.3-.5-4.5-1.4-6.6 5.6-2.7 9.4-8.6 9.4-14.9zM17.2 45C9.3 45 2.9 38.6 2.9 30.7s6.4-14.3 14.3-14.3c6.8 0 12.7 4.9 14 11.5-5.7 2.8-9.3 8.5-9.3 14.9 0 .5 0 .9.1 1.4-1.5.5-3.1.8-4.8.8zm21.5 12.1c-7.9 0-14.3-6.4-14.3-14.3s6.4-14.3 14.2-14.3h1c4.9.4 9.3 3.3 11.6 7.7l.5.9s1.4 3.6 1.4 5.6c-.1 7.9-6.5 14.4-14.4 14.4zm14.2-22.9c-2.7-4.5-7.6-7.6-13.1-8h-1-.1-.1c-1.6 0-3.3.2-4.9.7-.8-1.8-1.2-3.7-1.2-5.7 0-7.9 6.4-14.3 14.3-14.3s14.3 6.4 14.3 14.3c0 5.6-3.3 10.6-8.2 13z"/><path d="M22.5 23.6c0-2-2-3.5-4.5-3.5s-4.5 1.5-4.5 3.5 2 3.5 4.5 3.5c.6 0 1.1-.5 1.1-1.1 0-.6-.5-1.1-1.1-1.1-1.3 0-2.3-.7-2.3-1.2s1-1.2 2.3-1.2c1.3 0 2.3.7 2.3 1.2 0 .6.5 1.1 1.1 1.1s1.1-.6 1.1-1.2zM47.5 9.4c-2.5 0-4.5 1.5-4.5 3.5s2 3.5 4.5 3.5c.6 0 1.1-.5 1.1-1.1 0-.6-.5-1.1-1.1-1.1-1.3 0-2.3-.7-2.3-1.2 0-.6 1-1.2 2.3-1.2 1.3 0 2.3.7 2.3 1.2 0 .6.5 1.1 1.1 1.1.6 0 1.1-.5 1.1-1.1 0-2-2-3.6-4.5-3.6zM39.5 31C37 31 35 32.5 35 34.5s2 3.5 4.5 3.5c.6 0 1.1-.5 1.1-1.1s-.5-1.1-1.1-1.1c-1.3 0-2.3-.7-2.3-1.2 0-.6 1-1.2 2.3-1.2s2.3.7 2.3 1.2c0 .6.5 1.1 1.1 1.1.6 0 1.1-.5 1.1-1.1.1-2.1-1.9-3.6-4.5-3.6z"/></svg><svg viewBox="0 0 64 64" width="64" height="64" id="pasta" x="64" xmlns="http://www.w3.org/2000/svg"><path d="M62 29l-3.8-6.9c-.9-1.7-2.5-2.8-4.3-3.1-1.1-3.8-4.6-6.6-8.8-6.6-1.8 0-3.3 1.2-3.8 2.9-1.7-1.8-4-2.9-6.7-2.9-1.8 0-3.3 1.2-3.8 2.9-1.7-1.8-4-2.9-6.7-2.9-1.8 0-3.3 1.2-3.8 2.9-1.7-1.8-4-2.9-6.7-2.9-2.2 0-3.9 1.8-3.9 3.9V19c-3.2.5-6.1 2.4-7.7 5.3C.2 27.7.2 31.6 2 35l3.8 6.9c.9 1.7 2.5 2.8 4.3 3.1 1.1 3.8 4.6 6.6 8.8 6.6 1.8 0 3.3-1.2 3.8-2.9 1.7 1.8 4 2.9 6.7 2.9 1.8 0 3.3-1.2 3.8-2.9 1.7 1.8 4 2.9 6.7 2.9 1.8 0 3.3-1.2 3.8-2.9 1.7 1.8 4 2.9 6.7 2.9 2.2 0 3.9-1.8 3.9-3.9V45c3.2-.5 6.1-2.4 7.7-5.3 1.8-3.4 1.8-7.3 0-10.7zM9.8 42.1c-.7-.3-1.3-.9-1.7-1.6l-3.8-6.9c-1.4-2.5-1.4-5.5.1-8.1 1.2-2.1 3.2-3.5 5.4-3.9v20.5zm10.4 5.6c0 .7-.6 1.3-1.3 1.3-3.6 0-6.5-2.9-6.5-6.5V16.3c0-.7.6-1.3 1.3-1.3 3.6 0 6.5 2.9 6.5 6.5v26.2zm10.5 0c0 .7-.6 1.3-1.3 1.3-3.6 0-6.5-2.9-6.5-6.5V16.3c0-.7.6-1.3 1.3-1.3 3.6 0 6.5 2.9 6.5 6.5v26.2zm10.4 0c0 .7-.6 1.3-1.3 1.3-3.6 0-6.5-2.9-6.5-6.5V16.3c0-.7.6-1.3 1.3-1.3 3.6 0 6.5 2.9 6.5 6.5v26.2zm10.5 0c0 .7-.6 1.3-1.3 1.3-3.6 0-6.5-2.9-6.5-6.5V16.3c0-.7.6-1.3 1.3-1.3 3.6 0 6.5 2.9 6.5 6.5v26.2zm8.1-9.3c-1.2 2.1-3.2 3.5-5.4 3.9V21.9c.7.3 1.3.9 1.7 1.6l3.8 6.9c1.3 2.4 1.3 5.5-.1 8z"/></svg><svg viewBox="0 0 64 64" width="64" height="64" id="pesto" y="141.6" xmlns="http://www.w3.org/2000/svg"><path d="M44.2 19.8v-5.2c0-1-.8-1.7-1.7-1.7h-1.7c-.6-3.6-3.4-6.2-7-6.8V2.4c0-1-.8-1.7-1.7-1.7-1 0-1.7.8-1.7 1.7V6c-3.5.7-6.4 3.2-7 6.8h-1.7c-1 0-1.7.8-1.7 1.7v5.2c-3.8.9-5.2 4.8-5.2 8.7v26.1c0 4.6 2.2 8.7 7 8.7h20.9c4.7 0 7-4.1 7-8.7v-26c-.3-4.2-1.4-8.1-5.5-8.7zM32 9.4c2.4 0 4.6 1.3 5.2 3.5H26.8c.6-2.3 2.8-3.5 5.2-3.5zm-8.7 6.9h17.4v3.5H23.3v-3.5zm22.6 38.3c0 2.7-.7 5.2-3.5 5.2H21.5c-2.8 0-3.5-2.6-3.5-5.2h7v-3.5h-7v-3.5h7v-3.5h-7v-3.5h7v-3.5h-7v-3.5h7v-3.5h-7v-1.7c0-2.7.7-5.2 3.5-5.2h20.9c2.8 0 3.5 2.6 3.5 5.2v26.2z"/></svg><svg viewBox="0 0 64 77.6" width="64" height="77.6" id="piece-of-cheese" xmlns="http://www.w3.org/2000/svg"><path d="M18.8 49c-3 0-5.4-2.3-5.4-5.2 0-2.9 2.4-5.2 5.4-5.2 3 0 5.4 2.3 5.4 5.2 0 2.9-2.4 5.2-5.4 5.2zm0-8.5c-1.9 0-3.4 1.5-3.4 3.2 0 1.8 1.5 3.2 3.4 3.2s3.4-1.5 3.4-3.2c.1-1.7-1.5-3.2-3.4-3.2zM29.9 28.8c-2.7 0-4.8-1.6-4.8-3.7s2.1-3.7 4.8-3.7 4.8 1.6 4.8 3.7-2.1 3.7-4.8 3.7zm0-5.4c-1.7 0-2.8.9-2.8 1.7 0 .9 1.3 1.7 2.8 1.7 1.5 0 2.8-.8 2.8-1.7 0-.8-1.2-1.7-2.8-1.7z"/><path d="M18.8 49c-3 0-5.4-2.3-5.4-5.2 0-2.9 2.4-5.2 5.4-5.2 3 0 5.4 2.3 5.4 5.2 0 2.9-2.4 5.2-5.4 5.2zm0-8.5c-1.9 0-3.4 1.5-3.4 3.2 0 1.8 1.5 3.2 3.4 3.2s3.4-1.5 3.4-3.2c.1-1.7-1.5-3.2-3.4-3.2z"/><path d="M62.9 28.3c-.1-.2-.4-1.1-1.1-1.8-5.1-5.4-11.3-9.2-18.4-11.3-4-1.2-8.1-1.8-12.3-1.8-.8 0-1.6.2-2.1.7-.2.2-12.8 10.8-15.2 12.9-.3.3-.6.6-.7.9-.2.5.1 1.1.5 1.3.7.3 1.1.8 1.1 1.2 0 .4-.4.8-1.1 1.1-.5.2-1.2.3-1.8.3-.6 0-1.1-.1-1.6-.2 0 0-.4-.2-.8-.2-.5 0-.9.2-1.4.6-.1.1-.3.3-.7.5-2.5 2.1-4.3 3.6-4.8 4.1-.6.7-.9 1.2-1 1.4-.2.3-.9 1.3-.9 3v5.1c0 1 .7 1.5 1.4 1.5h.5c.9 0 1.7.8 1.7 1.8s-.8 1.8-1.7 1.8h-.4c-.8 0-1.6.6-1.6 1.5v7.1c0 1 .8 1.8 1.8 1.8h.4c.8-.3 26.3-4.6 43.2-7.4 7.7-1.3 13.9-2.3 15.8-2.7.7-.1 1.5-.5 1.5-1.8v-1.5c0-3.7.1-13.7.1-17.6.1-1.1-.3-2.1-.4-2.3zm-27 5.1c.2-.6.6-1.2 2.5-1.4h.5c.9 0 1.7.3 2.3.8.4.3.8.8.8 1.6 0 1.7-1.4 3-3.1 3-1.7 0-3.1-1.4-3.1-3-.1-.6 0-.7.1-1zm-27.3.7c.3-.3.6-.5.7-.6h.3c.7.2 1.5.3 2.2.3.9 0 1.8-.2 2.6-.5 1.6-.6 2.5-1.7 2.5-3 0-.8-.4-1.5-1-2.1-.1-.1-.2-.2 0-.3C19.2 25 30 15.8 30.3 15.6c.2-.1.5-.2.8-.2 6.5 0 18.9 1.6 29.2 12.5l.1.1-.9.2L42.1 31c-.9-.6-2-.9-3.2-.9h-.7c-1.3.2-3.1.6-3.9 2.2L4.9 37.1c1.1-1 2.9-2.4 3.7-3zm52.7 14.1v1.4c-2.1.4-8.2 1.4-15.7 2.6-17.2 2.9-40.5 6.8-43 7.3v-6.4c2 0 3.6-1.7 3.6-3.8 0-2.1-1.6-3.8-3.6-3.8v-5.1c0-.7.2-.8.7-1l30.4-5.1c0 2.8 2.3 5 5.1 5s5.1-2.2 5.1-5c0-1-.4-1.7-.4-1.7L59.8 30l1.5-.2c.1.3.1.5.1.8 0 3.9-.1 13.9-.1 17.6z"/><path d="M29.9 28.8c2.7 0 4.8-1.6 4.8-3.7s-2.1-3.7-4.8-3.7S25 23 25 25.1s2.2 3.7 4.9 3.7zm0-5.4c1.7 0 2.8.9 2.8 1.7 0 .9-1.3 1.7-2.8 1.7-1.5 0-2.8-.8-2.8-1.7-.1-.8 1.1-1.7 2.8-1.7z"/></svg><svg viewBox="0 0 64 64" width="64" height="64" id="pink" x="116.8" y="141.6" xmlns="http://www.w3.org/2000/svg"><path d="M.6 12.8v2c0 6.5 2 12.8 5.8 18.1 3.4 4.8 8 8.5 13.4 10.8v7.4h24.4v-7.4c5.4-2.3 10-6 13.4-10.8 3.8-5.3 5.8-11.6 5.8-18.1v-2H.6zm23.3 34.3v-2.7h16.2v2.7H23.9zm30.4-16.5c-3.1 4.4-7.4 7.8-12.5 9.7H22.2c-5-1.9-9.3-5.3-12.5-9.7-2.9-4.1-4.6-8.8-4.9-13.7h54.4c-.4 4.9-2.1 9.6-4.9 13.7z"/><path d="M3.2 23.6c1.9 2.2 3.5 4.5 5.3 6.7 1.6 1.9 3.3 3.8 5 5.7.6.6 1.2 1.3 1.9 1.9.1.1.3.1.4.2.3.1.5.3.8.4.3 0 .5.1.8.1 1.5.3 3.3.8 4.2 2.1 0 0 0 .1.1.1.9.4 1.8.7 2.8 1 3.1.8 6.4 1.1 9.6 1.1h.1V16.2H3v7.3s.1 0 .2.1zM23.2 43.8h11.2v5H23.2z"/></svg><svg viewBox="0 0 64 64" width="64" height="64" id="red" x="180.8" y="141.6" xmlns="http://www.w3.org/2000/svg"><path d="M19.8 45.7h24.4v5.4H19.8zM.6 12.8v2c0 6.5 2 12.8 5.8 18.1 2.5 3.5 5.7 6.5 9.3 8.7h32.6c3.6-2.2 6.8-5.1 9.3-8.7 3.8-5.3 5.8-11.6 5.8-18.1v-2H.6z"/></svg><svg viewBox="0 0 64 64" width="64" height="64" id="shrimp" x="256" xmlns="http://www.w3.org/2000/svg"><path d="M51 2.8H17.9c-.6 0-1.2-.5-1.2-1.2 0-.6-.5-1-1-1-.6 0-1 .5-1 1 0 1.8 1.4 3.2 3.2 3.2H51c5.7 0 10.4 4.6 10.4 10.4 0 5.1-3.7 9.3-8.6 10.2 2.5-2.9 4.1-6.6 4.1-10.7v-2.2c0-1.8-1.4-3.2-3.2-3.2H24.4c-7.2 0-13.2 2.8-17.5 8-4 4.9-6.2 11.6-6.2 19 0 14.9 12.1 27 27 27h13c.4 0 .7-.2.9-.5.2-.3.2-.7 0-1l-2-3.9 2-5c.2-.4.1-.8-.2-1.1-.3-.3-.7-.4-1.1-.2L27.5 57c-7.1-.1-12.9-5.9-12.9-13.1 0-7.1 5.6-12.8 12.6-13.1l4.6 5.5c.2.2.3.5.3.7v5.7c0 .6.5 1 1 1 .6 0 1-.5 1-1V37c0-.7-.3-1.5-.7-2l-3.5-4.2h2.8l4.6 5.5c.2.2.3.5.3.7v5.7c0 .6.5 1 1 1s1-.5 1-1V37c0-.7-.3-1.5-.7-2l-3.5-4.2H38l4.6 5.5c.2.2.3.5.3.7v5.7c0 .6.5 1 1 1s1-.5 1-1V37c0-.7-.3-1.5-.7-2l-3.5-4.2c3.6 0 7-1.2 9.7-3.3h.6c6.8 0 12.4-5.6 12.4-12.4S57.8 2.8 51 2.8zm3.8 9.7v2.2c0 7.8-6.4 14.2-14.2 14.2h-13c-.8 0-1.5.1-2.2.2V11.3h28.2c.7 0 1.2.6 1.2 1.2zm-31.4-1.1v18.1c-1.6.5-3.2 1.2-4.5 2.2L8.2 18.8c.1-.1.1-.2.2-.2 3.7-4.5 8.9-7 15-7.2zm-9.5 38.7l-5 2.7c-3.8-4.3-6.1-9.9-6.2-16.1L13 40.1c-.3 1.2-.5 2.5-.5 3.8.1 2.2.5 4.3 1.4 6.2zm23.7 8.4l1.4 2.9H28.7v-2.6l10.1-4.2-1.3 3.2c0 .1 0 .4.1.7zm-11 .5v2.3c-6.3-.3-12.1-2.9-16.4-7l4.5-2.4c2.6 4 7 6.8 11.9 7.1zM13.7 38.2l-11-3.7c.3-5.3 1.8-10.1 4.3-14L17.3 33c-1.6 1.4-2.8 3.2-3.6 5.2z"/><path d="M41.8 20c1.8 0 3.2-1.4 3.2-3.2s-1.4-3.2-3.2-3.2-3.2 1.4-3.2 3.2S40 20 41.8 20zm0-4.3c.6 0 1.2.5 1.2 1.2 0 .6-.5 1.2-1.2 1.2-.6 0-1.2-.5-1.2-1.2s.5-1.2 1.2-1.2z"/></svg><svg viewBox="0 0 64 64" width="64" height="64" id="white" x="256" y="64" xmlns="http://www.w3.org/2000/svg"><path d="M.6 12.8v2c0 6.5 2 12.8 5.8 18.1 3.4 4.8 8 8.5 13.4 10.8v7.4h24.4v-7.4c5.4-2.3 10-6 13.4-10.8 3.8-5.3 5.8-11.6 5.8-18.1v-2H.6zm23.3 34.3v-2.7h16.2v2.7H23.9zm30.4-16.5c-3.1 4.4-7.4 7.8-12.5 9.7H22.2c-5-1.9-9.3-5.3-12.5-9.7-2.9-4.1-4.6-8.8-4.9-13.7h54.4c-.4 4.9-2.1 9.6-4.9 13.7z"/></svg></svg>